<svg xmlns="http://www.w3.org/2000/svg" xmlns:xlink="http://www.w3.org/1999/xlink"><defs><symbol viewBox="0 0 20 20" id="ic-currency-aud"><g fill="none"><path fill="#283991" d="M9.993 0v19.986c5.52 0 9.993-4.474 9.993-9.993C19.986 4.473 15.512 0 9.993 0z" /><path fill="#283991" d="M9.993 0C4.474 0 0 4.474 0 9.993c0 5.52 4.474 9.993 9.993 9.993 5.52 0 5.52-19.986 0-19.986z" /><path fill="#FFF" d="M6.853 15.319l.674-.84-1.04.188-.362-1.008-.393 1.008-1.062-.188.675.821-.701.821 1.069-.168.36.988.393-.987 1.09.194zm7.966.741l.382-.475-.59.107-.205-.572-.222.572-.603-.107.383.465-.397.465.606-.095.204.56.222-.56.618.111zm0-10.518l.382-.477-.59.107-.205-.57-.222.57-.603-.107.383.466-.397.465.606-.095.204.56.222-.56.618.11zm2.472 2.721l.382-.476-.59.107-.205-.572-.222.572-.603-.107.383.465-.397.465.605-.095.205.56.222-.56.618.11zm-4.611 1.21l.382-.476-.59.107-.204-.572-.223.572-.602-.107.383.465-.397.465.605-.095.205.56.222-.56.618.11z" /><path fill="#283991" d="M2.099 3.87c-.157.202-.307.41-.448.623h1.07L2.1 3.87zM7.26 9.993h.962l-.963-.962zM4.068 1.947c-.23.169-.45.348-.664.536l.664.663v-1.2zm-.963 8.046h.963V9.03zM9.993 0c-.948 0-1.864.135-2.734.382v2.764L9.993.412V0zm0 9.072V7.684H8.606zm-9.581.921l2.31-2.309H.272A10.004 10.004 0 000 9.994h.412zm8.193-5.5h1.388V3.105z" /><g fill="#FFF"><path d="M9.993 9.363v-.291L8.606 7.684h1.387v-.496H7.818zm-7.271-4.87H1.65c-.107.162-.209.328-.307.497H3.45L2.2 3.74a9.019 9.019 0 00-.1.13l.623.623zM4.068 9.03v.963h.497v-1.69l-1.69 1.69h.23zM7.26.382a8.964 8.964 0 00-.497.155v3.336l3.23-3.23v-.23L7.26 3.146V.382zM4.05 7.684l.018-.017.48-.48H.401a9.55 9.55 0 00-.13.497h2.45l-2.31 2.31h1.33l2.309-2.31z" /><path d="M.412 9.993l2.31-2.309-2.31 2.31zM9.993 4.99v-.497H8.605l1.388-1.388v-1.33L6.78 4.99z" /><path d="M9.993 3.105L8.605 4.493l1.388-1.388zm-5.925.041l-.664-.663a10.16 10.16 0 00-.676.653l1.34 1.34.014.015.483.482V1.605c-.169.11-.335.222-.497.342v1.2zM7.26 9.03l.962.963H9.49L6.763 7.266v2.727h.496z" /></g><path fill="#D32030" d="M4.068 4.476l.034.034-.034-.034z" /><path fill="#F44336" d="M8.314 7.684l-.496-.496h2.175V4.99H6.78l-.016.017V4.99h.016l3.214-3.214V.643l-3.23 3.23V.537a9.957 9.957 0 00-2.198 1.068v3.368l.017.017h-.017v-.017l-.483-.482.003.002h-.017v-.017l-1.34-1.34c-.184.195-.36.396-.528.605L3.449 4.99H1.344a9.918 9.918 0 00-.942 2.198h4.145l.018-.018v.018h-.018l-.479.48v.017h-.017L1.74 9.993h1.134l1.69-1.69v1.69h2.198V7.266L9.49 9.993h.375c.043-.044.087-.089.129-.135v-.495l-1.68-1.679z" /><path fill="#D32030" d="M6.763 3.873l3.23-3.23zM4.092 7.709v-.042l-.041.042zm.497-.539l-.042.042h.042zm2.174-2.14l.04-.04h-.04zm-2.695-.513h.04l-.006-.007-.034-.034zm.538.496l-.041-.04v.04z" /></g></symbol><symbol viewBox="0 0 20 20" id="ic-currency-bch"><g fill="none"><circle cx="10" cy="10" r="10" fill="#8DC351" /><path fill="#FFF" d="M13.254 6.584c-.485-1.233-1.7-1.344-3.117-1.069l-.505-1.758-1.07.307.492 1.712c-.281.08-.568.169-.852.256L7.708 4.31l-1.07.306.504 1.758c-.23.071-.456.141-.678.205l-.002-.006-1.476.423.328 1.144s.786-.243.777-.224c.433-.124.646.087.75.292l.575 2.003a.951.951 0 01.115-.025l-.113.032.804 2.807c.02.142.002.382-.3.47.017.008-.779.222-.779.222l.155 1.34 1.392-.4c.26-.074.516-.142.766-.213l.51 1.778 1.07-.306-.505-1.76c.287-.075.573-.155.858-.237l.501 1.752 1.07-.307-.508-1.775c1.77-.62 2.899-1.434 2.57-3.169-.263-1.396-1.077-1.82-2.169-1.772.53-.494.758-1.161.401-2.063zm-.406 4.231c.381 1.33-1.937 1.83-2.662 2.04l-.676-2.357c.725-.208 2.94-1.069 3.338.318v-.001zm-1.451-3.181c.346 1.21-1.592 1.612-2.196 1.785l-.613-2.137c.604-.173 2.447-.909 2.809.352z" /></g></symbol><symbol viewBox="0 0 20 20" id="ic-currency-btc"><g fill="none"><circle cx="10" cy="10" r="10" fill="#F7931A" /><path fill="#FFF" d="M14.493 8.762c.196-1.31-.802-2.014-2.165-2.484l.442-1.775-1.08-.269-.431 1.729a35.44 35.44 0 00-.866-.204l.434-1.74-1.08-.269-.442 1.774a30.808 30.808 0 01-.69-.162l.001-.006-1.49-.372-.287 1.154s.802.184.785.195c.437.11.516.399.503.629l-.504 2.022a.96.96 0 01.113.035l-.115-.028-.706 2.833c-.054.132-.19.332-.496.256.012.016-.785-.196-.785-.196l-.536 1.237 1.406.35c.262.066.518.135.77.199l-.447 1.795 1.08.269.442-1.775c.295.08.581.153.861.223l-.441 1.767 1.08.27.447-1.792c1.842.349 3.227.208 3.81-1.458.47-1.341-.023-2.116-.992-2.62.706-.163 1.237-.627 1.38-1.587zm-2.469 3.462c-.333 1.342-2.592.616-3.325.434l.594-2.378c.733.183 3.08.545 2.731 1.944zm.335-3.48c-.305 1.22-2.185.6-2.794.447l.537-2.156c.61.152 2.574.435 2.257 1.708z" /></g></symbol><symbol viewBox="0 0 20 20" id="ic-currency-dai"><g fill="none"><circle cx="10" cy="10" r="9.688" stroke="#F7B14A" stroke-width=".625" /><path fill="#FFCC80" d="M3.75 10H10v6.25z" /><path fill="#FFB74D" d="M10 3.75v8.125L3.75 10z" /><path fill="#FFF" d="M5.625 10L10 5.625v2.5L8.125 10z" /><path fill="#F7C57B" d="M16.25 10H10v6.25z" /><path fill="#F7B14A" d="M10 3.75v8.125L16.25 10z" /><path fill="#FFF" d="M14.375 10L10 5.625v2.5L11.875 10z" /></g></symbol><symbol viewBox="0 0 20 20" id="ic-currency-eth"><g fill="none"><circle cx="10" cy="10" r="10" fill="#EBF0F1" /><g fill="#12100B"><path d="M10.311 2.5v10.353l4.686-2.715z" /><path fill-opacity=".45" d="M10.311 2.5l-4.686 7.638 4.686 2.718z" /><path d="M10.311 13.73v3.767L15 11.01z" /><path fill-opacity=".45" d="M10.311 17.497v-3.768L5.625 11.01z" /><path fill-opacity=".6" d="M10.311 12.858l4.686-2.72-4.686-2.093zm-4.686-2.721l4.686 2.721V8.045z" /></g></g></symbol><symbol viewBox="0 0 20 20" id="ic-currency-eur"><g fill="none"><path fill="#283991" d="M9.993 0v19.986c5.52 0 9.993-4.474 9.993-9.993C19.986 4.473 15.512 0 9.993 0z" /><path fill="#283991" d="M9.993 0C4.474 0 0 4.474 0 9.993c0 5.52 4.474 9.993 9.993 9.993 5.52 0 5.52-19.986 0-19.986z" /><path fill="#F8D12E" d="M9.976 1.733l.244.75h.789l-.639.464.244.75-.638-.464-.638.464.244-.75-.639-.464h.79zm0 14.161l.244.75h.789l-.639.464.244.75-.638-.463-.638.463.244-.75-.639-.464h.79zm3.886-12.906l.244.75h.789l-.638.464.244.75-.639-.463-.638.463.244-.75-.638-.464h.789zm2.652 2.616l.244.75h.789l-.639.464.244.75-.638-.463-.638.463.244-.75-.639-.464h.79zm.063 6.61l.244.75h.789l-.638.464.243.75-.638-.463-.638.463.244-.75-.639-.464h.79zM3.534 5.604l.244.75h.788l-.638.464.244.75-.638-.463-.638.463.243-.75-.638-.464h.79zm13.595 3.153l.243.75h.79l-.639.463.244.75-.638-.463-.639.464.244-.75-.638-.464h.789zm-14.198 0l.244.75h.789l-.639.463.244.75-.638-.463-.638.464.244-.75-.638-.464h.788zm.517 3.457l.244.75h.789l-.638.464.243.75-.638-.463-.638.463.244-.75-.638-.464h.789zm10.529 2.728l.243.75h.79l-.639.464.244.75-.638-.464-.639.464.244-.75-.638-.464h.79zM6.215 2.988l.244.75h.789l-.638.464.244.75-.639-.463-.638.463.244-.75-.638-.464h.789zm-.287 11.906l.243.75h.79l-.639.464.244.75-.638-.464-.638.464.243-.75-.638-.464h.789z" /></g></symbol><symbol viewBox="0 0 20 20" id="ic-currency-gbp"><g fill="none"><circle cx="10" cy="10" r="10" fill="#FFF" /><path fill="#283991" d="M2.067 3.912a9.964 9.964 0 00-1.723 3.48h5.203l-3.48-3.48zm17.589 3.479a9.964 9.964 0 00-1.723-3.48l-3.48 3.48h5.203zM.344 12.609a9.965 9.965 0 001.723 3.48l3.48-3.48H.344zM16.088 2.067a9.964 9.964 0 00-3.48-1.723v5.203l3.48-3.48zM3.912 17.933a9.964 9.964 0 003.48 1.723v-5.203l-3.48 3.48zM7.391.344a9.965 9.965 0 00-3.48 1.723l3.48 3.48V.344zm5.218 19.312a9.965 9.965 0 003.48-1.723l-3.48-3.48v5.203zm1.844-7.047l3.48 3.48a9.964 9.964 0 001.723-3.48h-5.203z" /><g fill="#F44336"><path d="M19.915 8.696h-8.61V.085a10.1 10.1 0 00-2.61 0v8.61H.086a10.1 10.1 0 000 2.61h8.61v8.61a10.099 10.099 0 002.61 0v-8.61h8.61a10.099 10.099 0 000-2.61z" /><path d="M12.609 12.609l4.462 4.462c.205-.205.401-.42.588-.642l-3.82-3.82h-1.23zm-5.218 0L2.93 17.07c.205.205.42.401.642.588l3.82-3.82v-1.23zm.003-5.218L2.932 2.93c-.206.205-.401.42-.588.642l3.82 3.82h1.23zm5.215 0L17.07 2.93a10.21 10.21 0 00-.642-.588l-3.82 3.82v1.23z" /></g></g></symbol><symbol viewBox="0 0 20 20" id="ic-currency-ltc"><g fill="none"><circle cx="10" cy="10" r="10" fill="#BFBBBB" /><path fill="#FFF" d="M6.517 12.009l-.892.346.43-1.724.902-.363L8.258 5h3.206l-.95 3.873.882-.357-.425 1.718-.892.357-.53 2.177h4.826L13.829 15H5.783z" /></g></symbol><symbol viewBox="0 0 20 20" id="ic-currency-unknown"><path fill="#4bb4b3" d="M20 10.128c-.038 5.523-4.545 9.97-10.068 9.933C4.41 20.023-.038 15.516 0 9.993.037 4.471 4.545.023 10.067.061 15.59.098 20.037 4.606 20 10.128" /><path fill="#fff" d="M8.59 11.926l.018-2.605c.86-.029 1.507-.175 1.939-.439.432-.264.65-.714.655-1.35l.002-.238c.002-.432-.118-.762-.362-.99-.244-.23-.561-.346-.954-.348-.425-.003-.776.131-1.056.402-.28.27-.47.616-.57 1.035l-1.988-.882c.1-.34.244-.671.431-.993a3.28 3.28 0 01.733-.865A3.646 3.646 0 018.52 4.04c.421-.155.91-.232 1.465-.228a4.501 4.501 0 011.55.266 3.6 3.6 0 011.205.723c.335.309.592.68.768 1.113.177.433.264.91.26 1.432a3.495 3.495 0 01-.238 1.293 3.24 3.24 0 01-1.547 1.71 3.804 3.804 0 01-1.097.367l-.008 1.227zm1.055 4.383c-.561-.004-.961-.137-1.2-.4a1.361 1.361 0 01-.353-.96l.003-.427c.002-.378.124-.697.366-.956s.644-.386 1.205-.382c.562.003.962.136 1.2.399.238.261.356.582.354.96l-.003.427a1.361 1.361 0 01-.367.956c-.241.259-.643.386-1.205.383z" /></symbol><symbol viewBox="0 0 20 20" id="ic-currency-usd"><g fill="none" fill-rule="evenodd"><circle cx="10" cy="10" r="10" fill="#FFF" /><path fill="#F44336" fill-rule="nonzero" d="M12.18 1.833h3.583A9.951 9.951 0 0010.578.018h-.308c.906.114 1.323.783 1.91 1.815zm.926 3.628h5.799a9.976 9.976 0 00-1.186-1.814h-5.066c.179.564.33 1.173.453 1.814zm6.839 3.629a9.913 9.913 0 00-.331-1.814h-6.19c.062.594.103 1.202.123 1.814h6.398zm-.345 3.629a9.885 9.885 0 00.341-1.814h-6.24c-.022.612-.064 1.22-.127 1.814h6.025zm-6.789 3.629h4.865a9.985 9.985 0 001.203-1.815h-5.61a15.76 15.76 0 01-.458 1.815zm-2.818 3.627a9.845 9.845 0 005.698-1.812h-3.616c-.642 1.122-1.066 1.812-2.082 1.812z" /><path fill="#F44336" fill-rule="nonzero" d="M4.223 1.833h8.288C11.924.8 11.176.132 10.27.018h-.861a9.95 9.95 0 00-5.186 1.815zM2.268 3.647A9.983 9.983 0 001.082 5.46H13.73a15.962 15.962 0 00-.453-1.814H2.267zM.041 9.09h14.077c-.02-.612-.062-1.22-.124-1.814H.373A9.9 9.9 0 00.04 9.09zm.346 3.629H13.99a25.53 25.53 0 00.127-1.814H.046a9.87 9.87 0 00.341 1.814zm.721 1.814a9.97 9.97 0 001.202 1.815h10.952c.18-.564.334-1.173.458-1.815H1.108zm8.462 5.433l.061.002c.12.004.24.007.362.007 1.016 0 1.845-.69 2.487-1.813H4.295a9.843 9.843 0 005.275 1.804z" /><path fill="#283991" fill-rule="nonzero" d="M9.787.005A9.99 9.99 0 00.043 9.093h9.744V.005z" /><path fill="#EFEFEF" fill-rule="nonzero" d="M2 5.65l.152.468h.493l-.399.289.152.468L2 6.585l-.4.29.153-.468-.399-.29h.493zm0 1.653l.152.468h.493l-.399.289.152.468L2 8.238l-.4.29.153-.468-.399-.29h.493zM3.656 3.17l.152.468h.493l-.399.29.153.468-.399-.29-.399.29.152-.468-.399-.29h.494zm0 1.653l.152.468h.493l-.399.29.153.468-.399-.29-.399.29.152-.469-.399-.289h.494zm0 1.653l.152.468h.493l-.399.29.153.467-.399-.289-.399.29.152-.469-.399-.289h.494zM.742 7.701L.59 7.233l.398-.289H.496L.484 6.91a9.53 9.53 0 00-.148.507l.007-.005.399.29zM1.6 5.222l.4-.29.398.29-.152-.468.399-.29h-.493l-.153-.467-.152.468h-.182a9.409 9.409 0 00-.099.154l.187.135-.152.468zm2.056-2.769l.399.29-.153-.468.4-.29h-.286a9.92 9.92 0 00-.7.573l-.06.185.4-.29zm1.258-.537l.398-.29.4.29-.153-.468.399-.289h-.493l-.021-.063a9.895 9.895 0 00-.494.268l.116.084-.152.468zm.398.428l.153.468h.493l-.4.29.153.467-.399-.29-.398.29.152-.468-.4-.29h.494zm0 1.653l.153.468h.493l-.4.29.153.467-.399-.29-.398.29.152-.468-.4-.29h.494zm0 1.653l.153.468h.493l-.4.289.153.468-.399-.29-.398.29.152-.468-.4-.29h.494zm0 1.653l.153.468h.493l-.4.289.153.468-.399-.29-.398.29.152-.468-.4-.29h.494zm1.657-5.786l.152.468h.493l-.398.29.152.468-.4-.29-.398.29.152-.468-.399-.29h.493zm0 1.653l.152.468h.493l-.398.29.152.468-.4-.29-.398.29.152-.468-.399-.29h.493zm0 1.653l.152.468h.493l-.398.29.152.468-.4-.29-.398.29.152-.469-.399-.289h.493zm0 1.653l.152.468h.493l-.398.29.152.467-.4-.289-.398.29.152-.469-.399-.289h.493zM8.625.691l.153.468h.493l-.4.29.153.467-.399-.29-.399.29.153-.468-.4-.289h.494zm0 1.653l.153.468h.493l-.4.29.153.467-.399-.29-.399.29.153-.468-.4-.29h.494zm0 1.653l.153.468h.493l-.4.29.153.467-.399-.29-.399.29.153-.468-.4-.29h.494zm0 1.653l.153.468h.493l-.4.289.153.468-.399-.29-.399.29.153-.468-.4-.29h.494zm0 1.653l.153.468h.493l-.4.289.153.468-.399-.29-.399.29.153-.468-.4-.29h.494z" /></g></symbol><symbol viewBox="0 0 20 20" id="ic-currency-ust"><g fill="none"><path fill="#53AE94" d="M10 0c5.523 0 10 4.477 10 10s-4.478 10-10 10S0 15.524 0 10 4.477 0 10 0" /><path fill="#FFF" d="M11.234 8.668V7.18h3.402V4.913H5.373V7.18h3.402v1.486c-2.765.127-4.844.675-4.844 1.331 0 .656 2.08 1.204 4.844 1.331v4.765h2.46v-4.765c2.76-.127 4.835-.675 4.835-1.33s-2.075-1.203-4.835-1.33m0 2.256c-.07.004-.426.025-1.22.025-.635 0-1.081-.018-1.239-.026v.002c-2.443-.108-4.266-.534-4.266-1.043 0-.509 1.824-.934 4.266-1.042v1.661c.16.011.618.038 1.25.038a14.5 14.5 0 001.21-.038V8.84c2.437.109 4.257.534 4.257 1.042 0 .507-1.82.933-4.258 1.041" /></g></symbol><symbol viewBox="0 0 20 20" id="ic-currency-virtual"><g fill="none" fill-rule="evenodd"><path fill="#85ACB0" d="M20 10c0 5.523-4.477 10-10 10-5.522 0-10-4.477-10-10C0 4.478 4.478 0 10 0c5.523 0 10 4.478 10 10" /><path fill="#FFF" fill-rule="nonzero" d="M11.272 3.333c3.385 0 6.228 3.164 6.228 6.667 0 3.427-2.72 6.529-6.008 6.662l-.22.005H5.833a.833.833 0 01-.104-1.66L5.833 15h.833v-2.5h-.833a.833.833 0 01-.827-.729L5 11.667c0-.425.318-.776.729-.827l.104-.007h.833V9.165h-.833a.833.833 0 01-.827-.728L5 8.333c0-.46.373-.833.833-.833h.833V5h-.833a.833.833 0 01-.827-.729L5 4.167c0-.425.318-.776.729-.827l.104-.007h5.44zm0 1.667H8.333v2.5h2.5c.425 0 .776.318.827.729l.007.104c0 .46-.373.834-.834.834h-2.5v1.665l2.5.001c.425 0 .776.318.827.73l.007.104a.833.833 0 01-.73.827l-.104.006h-2.5V15h2.94c2.421 0 4.56-2.38 4.56-5 0-2.55-2.025-4.871-4.365-4.995L11.272 5z" /></g></symbol></defs></svg>