<svg xmlns="http://www.w3.org/2000/svg" xmlns:xlink="http://www.w3.org/1999/xlink"><defs><symbol viewBox="0 0 36 24" id="ic-flag-de"><defs><rect id="ic-flag-de_a" width="36" height="24" rx="3" /></defs><g fill="none" fill-rule="evenodd"><path fill="#000" d="M0 0h36v7.5H0z" mask="url(#ic-flag-de_b)" /><path fill="#FFCD00" d="M0 16.5h36V24H0z" mask="url(#ic-flag-de_b)" /><path fill="#F10000" d="M0 7.5h36v9H0z" mask="url(#ic-flag-de_b)" /><rect width="34.5" height="22.5" x=".75" y=".75" stroke="#a9a9a9" stroke-opacity=".04" stroke-width="1.5" mask="url(#ic-flag-de_b)" rx="3" /></g></symbol><mask id="ic-flag-de_b" fill="#fff"><use xlink:href="#ic-flag-de_a" /></mask><symbol viewBox="0 0 24 16" id="ic-flag-en"><g fill="none" fill-rule="evenodd"><g fill-rule="nonzero"><path fill="#0D47A1" d="M22.203.013H1.797C.805.013 0 .831 0 1.84v12.322c0 1.008.805 1.826 1.797 1.826h20.406c.992 0 1.797-.818 1.797-1.826V1.839C24 .831 23.195.013 22.203.013z" /><path fill="#FFF" d="M23.975 1.537A1.806 1.806 0 0022.203.013h-.468l-7.666 5.102V.013H9.931v5.102L2.265.013h-.468C.906.013.167.673.025 1.537l6.552 4.361H0v4.204h6.577l-6.552 4.36a1.806 1.806 0 001.772 1.525h.468l7.666-5.102v5.102h4.138v-5.102l7.666 5.102h.468c.891 0 1.63-.66 1.772-1.524l-6.552-4.361H24V5.898h-6.577l6.552-4.36z" /><path fill="#F44336" d="M13.241.013V6.74H24v2.52H13.241v6.726H10.76V9.26H0V6.74h10.759V.013h2.482zM1.162 15.87a1.8 1.8 0 01-.73-.52l7.956-5.247h1.52L1.162 15.87zm15.075-5.767l7.527 4.963a1.82 1.82 0 01-.576.623l-8.471-5.586h1.52zM.19 1.022C.316.767.5.545.725.374l8.378 5.525h-1.52L.19 1.023zm15.399 4.876h-1.52L22.824.125a1.8 1.8 0 01.735.517l-7.97 5.256z" /></g><rect width="23" height="15" x=".5" y=".5" stroke="#000" stroke-opacity=".04" rx="2" /></g></symbol><symbol viewBox="0 0 36 24" id="ic-flag-es"><defs><rect id="ic-flag-es_a" width="36" height="24" rx="3" /></defs><g fill="none" fill-rule="evenodd"><path fill="#DD172C" d="M0 0h36v6H0zm0 18h36v6H0z" mask="url(#ic-flag-es_b)" /><path fill="#FFD133" d="M0 6h36v12H0z" mask="url(#ic-flag-es_b)" /><g mask="url(#ic-flag-es_b)"><path fill="#FFEDB1" d="M8 11h2v1H8z" /><path stroke="#A41517" d="M6.08 10.95l.252 3.01c.07.85.82 1.54 1.668 1.54.85 0 1.598-.692 1.668-1.54l.251-3.01a.406.406 0 00-.419-.45h-3a.402.402 0 00-.42.45z" /><path fill="#A41517" d="M6 12h4v1H9l-1 2-1-2H6zM3 9h2v7H3zm8 0h2v7h-2zM6 8a1 1 0 011.01-1h1.98C9.549 7 10 7.444 10 8v.495A.495.495 0 019.51 9H6.49A.49.49 0 016 8.495V8z" /></g><rect width="34.5" height="22.5" x=".75" y=".75" stroke="#a9a9a9" stroke-opacity=".04" stroke-width="1.5" mask="url(#ic-flag-es_b)" rx="3" /></g></symbol><mask id="ic-flag-es_b" fill="#fff"><use xlink:href="#ic-flag-es_a" /></mask><symbol viewBox="0 0 36 24" id="ic-flag-fr"><defs><rect id="ic-flag-fr_a" width="36" height="24" rx="3" /></defs><g fill="none" fill-rule="evenodd"><path fill="#001F9B" d="M0 0h12v24H0z" mask="url(#ic-flag-fr_b)" /><path fill="#FF002D" d="M24 0h12v24H24z" mask="url(#ic-flag-fr_b)" /><path fill="#fff" d="M12 0h12v24H12z" mask="url(#ic-flag-fr_b)" /><rect width="34.5" height="22.5" x=".75" y=".75" stroke="#a9a9a9" stroke-opacity=".04" stroke-width="1.5" mask="url(#ic-flag-fr_b)" rx="3" /></g></symbol><mask id="ic-flag-fr_b" fill="#fff"><use xlink:href="#ic-flag-fr_a" /></mask><symbol viewBox="0 0 36 24" id="ic-flag-id"><defs><rect id="ic-flag-id_a" width="36" height="24" rx="3" /></defs><g fill="none" fill-rule="evenodd"><path fill="#E12237" d="M0 0h36v12H0z" mask="url(#ic-flag-id_b)" /><path fill="#fff" d="M0 12h36v12H0z" mask="url(#ic-flag-id_b)" /><rect width="34.5" height="22.5" x=".75" y=".75" stroke="#a9a9a9" stroke-opacity=".04" stroke-width="1.5" mask="url(#ic-flag-id_b)" rx="3" /></g></symbol><mask id="ic-flag-id_b" fill="#fff"><use xlink:href="#ic-flag-id_a" /></mask><symbol viewBox="0 0 36 24" id="ic-flag-it"><defs><rect id="ic-flag-it_a" width="36" height="24" rx="3" /></defs><g fill="none" fill-rule="evenodd"><path fill="#1BB65D" d="M0 0h12v24H0z" mask="url(#ic-flag-it_b)" /><path fill="#E43D4C" d="M24 0h12v24H24z" mask="url(#ic-flag-it_b)" /><path fill="#fff" d="M12 0h12v24H12z" mask="url(#ic-flag-it_b)" /><rect width="34.5" height="22.5" x=".75" y=".75" stroke="#a9a9a9" stroke-opacity=".04" stroke-width="1.5" mask="url(#ic-flag-it_b)" rx="3" /></g></symbol><mask id="ic-flag-it_b" fill="#fff"><use xlink:href="#ic-flag-it_a" /></mask><symbol viewBox="0 0 36 24" id="ic-flag-pl"><g fill="none" fill-rule="evenodd"><g fill-rule="nonzero"><path fill="#F44336" d="M0 21.241c0 1.513 1.207 2.74 2.696 2.74h30.608c1.489 0 2.696-1.227 2.696-2.74V12H0v9.241z" /><path fill="#fff" d="M33.304.02H2.696C1.207.02 0 1.246 0 2.759V12h36V2.759c0-1.513-1.207-2.74-2.696-2.74z" /></g><rect width="34.5" height="22.5" x=".75" y=".75" stroke="#a9a9a9" stroke-opacity=".04" stroke-width="1.5" rx="3" /></g></symbol><symbol viewBox="0 0 36 24" id="ic-flag-pt"><defs><rect id="ic-flag-pt_a" width="36" height="24" rx="3" /></defs><g fill="none" fill-rule="evenodd"><path fill="#128415" d="M0 0h12v24H0z" mask="url(#ic-flag-pt_b)" /><path fill="#FF2936" d="M12 0h24v24H12z" mask="url(#ic-flag-pt_b)" /><circle cx="12" cy="12" r="5.25" stroke="#FAF94F" stroke-width="1.5" mask="url(#ic-flag-pt_b)" /><g mask="url(#ic-flag-pt_b)"><path fill="#fff" d="M9.75 9.491c0-.271.217-.491.499-.491h3.502a.5.5 0 01.499.491v3.511c0 1.104-.89 1.998-2 1.998h-.5a2 2 0 01-2-1.998V9.491z" /><path fill="#1D50B5" d="M12 13.38c.621 0 1.125-1.629 1.125-2.25a1.125 1.125 0 00-2.25 0c0 .621.504 2.25 1.125 2.25z" /></g><rect width="34.5" height="22.5" x=".75" y=".75" stroke="#a9a9a9" stroke-opacity=".04" stroke-width="1.5" mask="url(#ic-flag-pt_b)" rx="3" /></g></symbol><mask id="ic-flag-pt_b" fill="#fff"><use xlink:href="#ic-flag-pt_a" /></mask><symbol viewBox="0 0 36 24" id="ic-flag-ru"><defs><rect id="ic-flag-ru_a" width="36" height="24" rx="3" /></defs><g fill="none" fill-rule="evenodd"><path fill="#fff" d="M0 0h36v7.5H0z" mask="url(#ic-flag-ru_b)" /><path fill="#E53B35" d="M0 16.5h36V24H0z" mask="url(#ic-flag-ru_b)" /><path fill="#0C47B7" d="M0 7.5h36v9H0z" mask="url(#ic-flag-ru_b)" /><rect width="34.5" height="22.5" x=".75" y=".75" stroke="#a9a9a9" stroke-opacity=".04" stroke-width="1.5" mask="url(#ic-flag-ru_b)" rx="3" /></g></symbol><mask id="ic-flag-ru_b" fill="#fff"><use xlink:href="#ic-flag-ru_a" /></mask><symbol viewBox="0 0 36 24" id="ic-flag-th"><defs><rect id="ic-flag-th_a" width="36" height="24" rx="3" /></defs><g fill="none" fill-rule="evenodd"><use fill="#F12532" xlink:href="#ic-flag-th_a" /><path fill="#fff" d="M0 4.5h36v15H0z" mask="url(#ic-flag-th_b)" /><path fill="#322B6C" d="M0 7.5h36v9H0z" mask="url(#ic-flag-th_b)" /><rect width="34.5" height="22.5" x=".75" y=".75" stroke="#a9a9a9" stroke-opacity=".04" stroke-width="1.5" mask="url(#ic-flag-th_b)" rx="3" /></g></symbol><mask id="ic-flag-th_b" fill="#fff"><use xlink:href="#ic-flag-th_a" /></mask><symbol viewBox="0 0 36 24" id="ic-flag-uk"><g fill="none" fill-rule="evenodd"><g fill-rule="nonzero"><path fill="#0D47A1" d="M33.304.02H2.696C1.207.02 0 1.246 0 2.759V21.24c0 1.513 1.207 2.74 2.696 2.74h30.608c1.489 0 2.696-1.227 2.696-2.74V2.76C36 1.247 34.793.02 33.304.02z" /><path fill="#FFF" d="M35.963 2.306C35.75 1.009 34.64.02 33.303.02h-.7l-11.5 7.653V.02h-6.206v7.653L3.397.02h-.7C1.358.02.25 1.009.036 2.306l9.828 6.541H0v6.306h9.865L.037 21.694c.213 1.297 1.322 2.286 2.66 2.286h.7l11.5-7.653v7.653h6.206v-7.653l11.5 7.653h.7c1.338 0 2.447-.989 2.66-2.286l-9.828-6.541H36V8.847h-9.865l9.828-6.541z" /><path fill="#F44336" d="M19.862.02v10.088H36v3.784H19.862V23.98h-3.724V13.892H0v-3.784h16.138V.02h3.724zM1.743 23.804a2.7 2.7 0 01-1.094-.782l11.933-7.87h2.28L1.743 23.805zm22.612-8.651l11.29 7.445a2.734 2.734 0 01-.863.934l-12.707-8.38h2.28zM.285 1.533A2.74 2.74 0 011.088.56l12.567 8.287h-2.28L.285 1.534zm23.099 7.314h-2.28l13.13-8.66c.43.162.809.431 1.104.776L23.384 8.847z" /></g><rect width="34.5" height="22.5" x=".75" y=".75" stroke="#a9a9a9" stroke-opacity=".04" stroke-width="1.5" rx="3" /></g></symbol><symbol viewBox="0 0 36 24" id="ic-flag-vi"><defs><rect id="ic-flag-vi_a" width="36" height="24" rx="3" /></defs><g fill="none" fill-rule="evenodd"><use fill="#EA403F" xlink:href="#ic-flag-vi_a" /><path fill="#FFFE4E" d="M18 15.675l-4.408 3.143 1.626-5.164-4.35-3.222 5.413-.048L18 5.25l1.72 5.134 5.413.048-4.351 3.222 1.626 5.164z" mask="url(#ic-flag-vi_b)" /><rect width="34.5" height="22.5" x=".75" y=".75" stroke="#a9a9a9" stroke-opacity=".04" stroke-width="1.5" mask="url(#ic-flag-vi_b)" rx="3" /></g></symbol><mask id="ic-flag-vi_b" fill="#fff"><use xlink:href="#ic-flag-vi_a" /></mask><symbol viewBox="0 0 36 24" id="ic-flag-zh-cn"><defs><rect id="ic-flag-zh-cn_a" width="36" height="24" rx="3" /></defs><g fill="none" fill-rule="evenodd"><rect width="34.5" height="22.5" x=".75" y=".75" fill="#ED3C3C" stroke="#a9a9a9" stroke-opacity=".04" stroke-width="1.5" mask="url(#ic-flag-zh-cn_b)" rx="3" /><path fill="#fff" d="M11.613 10.778h1.561V19.5h-1.561v-8.722zm11.18 8.657h-1.43l-.381-1.391 1.495.048c.365 0 .548-.242.548-.712v-7.055h-6.163V8.917h7.724v8.884c0 1.084-.598 1.634-1.794 1.634zm-7.841-7.977h6.262v6.31h-6.262v-6.31zm4.8 5.032v-1.294h-3.305v1.294h3.305zm-3.305-2.524h3.305v-1.262h-3.305v1.262zm-2.824-5.712c.864.744 1.528 1.408 1.993 1.99l-1.163.777c-.498-.615-1.162-1.294-1.993-2.071l1.163-.696zm-.449-1.31a11.1 11.1 0 01-1.345 1.844L10.5 7.947c.997-1.068 1.694-2.217 2.126-3.447l1.528.324c-.1.275-.215.534-.315.776h4.12v1.343h-2.193c.349.486.631.955.847 1.376l-1.395.501a14.269 14.269 0 00-1.097-1.877h-.947zm7.06 0a9.9 9.9 0 01-1.03 1.601l-1.329-.841c.814-.987 1.396-2.055 1.728-3.188l1.512.324c-.1.259-.183.518-.266.76H25.5v1.343h-2.492c.316.437.582.858.798 1.246l-1.396.502a13.56 13.56 0 00-1.046-1.748h-1.13z" mask="url(#ic-flag-zh-cn_b)" /></g></symbol><mask id="ic-flag-zh-cn_b" fill="#fff"><use xlink:href="#ic-flag-zh-cn_a" /></mask><symbol viewBox="0 0 36 24" id="ic-flag-zh-tw"><defs><rect id="ic-flag-zh-tw_a" width="36" height="24" rx="3" /></defs><g fill="none" fill-rule="evenodd"><rect width="34.5" height="22.5" x=".75" y=".75" fill="#ED3C3C" stroke="#a9a9a9" stroke-opacity=".04" stroke-width="1.5" mask="url(#ic-flag-zh-tw_b)" rx="3" /><path fill="#fff" d="M12.903 6.62c-.195.226-.39.453-.569.647h5.406c0 .647-.016 1.246-.048 1.764h.925V10H17.61l-.146 1.02h.666v.793h-.844c-.033.097-.049.178-.081.259l.47.356a21.23 21.23 0 01-2.678 1.116c1.136-.048 2.24-.08 3.344-.113.682-.34 1.364-.712 2.062-1.1l1.087.712c-1.85 1.051-3.896 1.893-6.136 2.524 2.127-.097 4.22-.21 6.266-.372-.357-.26-.73-.534-1.12-.793l1.088-.664c1.542.971 2.727 1.813 3.555 2.557l-1.218.842c-.34-.34-.73-.68-1.152-1.036-1.396.08-2.728.162-3.994.226v1.894c0 .841-.503 1.278-1.493 1.278H15.76l-.26-1.23c.47.049.925.081 1.347.081.309 0 .471-.162.471-.453v-1.505c-1.932.097-3.717.162-5.34.21l-.325-1.262c.422.017.828.033 1.233.033 1.17-.243 2.387-.631 3.67-1.15l-3.702.13-.227-1.068c.552 0 .925-.048 1.152-.145a18.823 18.823 0 002.16-.955c.032-.13.08-.259.113-.372H11.36a84.77 84.77 0 00.309-1.812h-1.055V9.03h1.168c.065-.47.114-.923.147-1.376a9.6 9.6 0 01-.634.55L10.5 7.25c.893-.664 1.672-1.57 2.321-2.735l1.267.275c-.146.26-.293.518-.439.76h4.773v1.07h-5.52zm0 3.252l-.195 1.149h2.484a11.012 11.012 0 00-1.721-.615l.34-.534h-.908zm2.337 1.149h1.007c.08-.388.146-.76.195-1.149h-2.565c.633.178 1.2.372 1.72.599l-.357.55zm1.266-1.828l.05-1.15h-3.442c-.033.389-.082.777-.13 1.15h2.256a9.013 9.013 0 00-1.526-.6l.374-.533a8.643 8.643 0 011.64.647l-.31.486h1.088zm3.88-2.007c.26.81.73 1.521 1.413 2.136a6.249 6.249 0 001.185-2.136h-2.598zm.504 2.977c-.585-.614-1.023-1.262-1.315-1.974-.26.324-.52.615-.78.874l-.811-.97c.844-.875 1.574-2.072 2.191-3.593l1.315.291c-.162.421-.34.81-.52 1.181h4.222v1.214h-.942c-.292 1.165-.78 2.12-1.429 2.897.747.485 1.64.89 2.679 1.23l-.698 1.213c-1.169-.42-2.143-.922-2.922-1.505-.812.647-1.802 1.117-2.938 1.424l-.715-1.117c1.072-.258 1.948-.647 2.663-1.165zm-.26 6.521c1.623.389 3.117.874 4.464 1.457l-.78 1.213a25.355 25.355 0 00-4.447-1.537l.763-1.133zm-5.698.065l.812.923c-1.202.68-2.68 1.245-4.416 1.699l-.568-1.198c1.688-.356 3.084-.841 4.172-1.424z" mask="url(#ic-flag-zh-tw_b)" /></g></symbol><mask id="ic-flag-zh-tw_b" fill="#fff"><use xlink:href="#ic-flag-zh-tw_a" /></mask></defs></svg>