<svg xmlns="http://www.w3.org/2000/svg" xmlns:xlink="http://www.w3.org/1999/xlink"><defs><symbol viewBox="0 0 24 16" id="ic-flag-de"><g fill="none"><path d="M0 11h24v3a2 2 0 01-2 2H2a2 2 0 01-2-2v-3z" fill="#FFCD00" /><path fill="#F10000" d="M0 5h24v6H0z" /><path d="M2 0h20a2 2 0 012 2v3H0V2a2 2 0 012-2z" fill="#333" /><rect stroke-opacity=".04" stroke="#000" x=".5" y=".5" width="23" height="15" rx="1" /></g></symbol><symbol viewBox="0 0 24 16" id="ic-flag-en"><g fill="none" fill-rule="evenodd"><g fill-rule="nonzero"><path fill="#0D47A1" d="M22.203.013H1.797C.805.013 0 .831 0 1.84v12.322c0 1.008.805 1.826 1.797 1.826h20.406c.992 0 1.797-.818 1.797-1.826V1.839C24 .831 23.195.013 22.203.013z" /><path fill="#FFF" d="M23.975 1.537A1.806 1.806 0 0022.203.013h-.468l-7.666 5.102V.013H9.931v5.102L2.265.013h-.468C.906.013.167.673.025 1.537l6.552 4.361H0v4.204h6.577l-6.552 4.36a1.806 1.806 0 001.772 1.525h.468l7.666-5.102v5.102h4.138v-5.102l7.666 5.102h.468c.891 0 1.63-.66 1.772-1.524l-6.552-4.361H24V5.898h-6.577l6.552-4.36z" /><path fill="#F44336" d="M13.241.013V6.74H24v2.52H13.241v6.726H10.76V9.26H0V6.74h10.759V.013h2.482zM1.162 15.87a1.8 1.8 0 01-.73-.52l7.956-5.247h1.52L1.162 15.87zm15.075-5.767l7.527 4.963a1.82 1.82 0 01-.576.623l-8.471-5.586h1.52zM.19 1.022C.316.767.5.545.725.374l8.378 5.525h-1.52L.19 1.023zm15.399 4.876h-1.52L22.824.125a1.8 1.8 0 01.735.517l-7.97 5.256z" /></g><rect width="23" height="15" x=".5" y=".5" stroke="#000" stroke-opacity=".04" rx="2" /></g></symbol><symbol viewBox="0 0 24 16" id="ic-flag-es"><defs><rect id="ic-flag-es_a" x="0" y="0" width="24" height="16" rx="2" /></defs><g fill="none" fill-rule="evenodd"><use fill="#DD172C" xlink:href="#ic-flag-es_a" /><path fill="#FFD133" fill-rule="nonzero" mask="url(#ic-flag-es_b)" d="M0 4h24v8H0z" /><g mask="url(#ic-flag-es_b)"><path fill="#FFEDB1" d="M5.333 7.333h1.334V8H5.333z" /><path d="M4.054 7.3l.167 2.007a1.138 1.138 0 001.112 1.026c.566 0 1.065-.461 1.112-1.026L6.613 7.3c.014-.174-.105-.3-.288-.3H4.341c-.176 0-.301.133-.287.3z" stroke="#A41517" stroke-width=".667" /><path fill="#A41517" d="M4 8h2.667v.667H6L5.333 10l-.666-1.333H4zM2 6h1.333v4.667H2zm5.333 0h1.333v4.667H7.333zM4 5.333c0-.368.306-.666.673-.666h1.32c.372 0 .674.296.674.666v.33A.33.33 0 016.34 6H4.327A.327.327 0 014 5.664v-.33z" /></g><rect stroke-opacity=".04" stroke="#000" mask="url(#ic-flag-es_b)" x=".5" y=".5" width="23" height="15" rx="1" /></g></symbol><mask id="ic-flag-es_b" fill="#fff"><use xlink:href="#ic-flag-es_a" /></mask><symbol viewBox="0 0 24 16" id="ic-flag-fr"><g fill="none"><path d="M16 0h6a2 2 0 012 2v12a2 2 0 01-2 2h-6V0z" fill="#FF002D" /><path fill="#FFF" d="M8 0h8v16H8z" /><path d="M2 0h6v16H2a2 2 0 01-2-2V2a2 2 0 012-2z" fill="#001F9B" /><rect stroke-opacity=".04" stroke="#000" x=".5" y=".5" width="23" height="15" rx="1" /></g></symbol><symbol viewBox="0 0 24 16" id="ic-flag-id"><g fill="none"><path d="M0 8h24v6a2 2 0 01-2 2H2a2 2 0 01-2-2V8z" fill="#FFF" /><path d="M2 0h20a2 2 0 012 2v6H0V2a2 2 0 012-2z" fill="#E12237" /><rect stroke-opacity=".04" stroke="#000" x=".5" y=".5" width="23" height="15" rx="1" /></g></symbol><symbol viewBox="0 0 24 16" id="ic-flag-it"><g fill="none"><path d="M16 0h6a2 2 0 012 2v12a2 2 0 01-2 2h-6V0z" fill="#E43D4C" /><path fill="#FFF" d="M8 0h8v16H8z" /><path d="M2 0h6v16H2a2 2 0 01-2-2V2a2 2 0 012-2z" fill="#1BB65D" /><rect stroke-opacity=".04" stroke="#000" x=".5" y=".5" width="23" height="15" rx="1" /></g></symbol><symbol viewBox="0 0 24 16" id="ic-flag-pl"><g fill="none"><path d="M0 14.171C0 15.181.805 16 1.797 16h20.406c.992 0 1.797-.819 1.797-1.829V8H0v6.171z" fill="#F44336" /><path d="M22.203 0H1.797C.805 0 0 .819 0 1.829V8h24V1.829C24 .819 23.195 0 22.203 0z" fill="#FFF" /><rect stroke-opacity=".04" stroke="#000" x=".5" y=".5" width="23" height="15" rx="1" /></g></symbol><symbol viewBox="0 0 24 16" id="ic-flag-pt"><defs><rect id="ic-flag-pt_a" x="0" y="0" width="24" height="16" rx="2" /></defs><g fill="none" fill-rule="evenodd"><use fill="#FF2936" fill-rule="nonzero" xlink:href="#ic-flag-pt_a" /><path d="M2 0h6v16H2a2 2 0 01-2-2V2a2 2 0 012-2z" fill="#128415" fill-rule="nonzero" mask="url(#ic-flag-pt_b)" /><g mask="url(#ic-flag-pt_b)"><g transform="translate(4.5 4.5)"><circle stroke="#FAF94F" cx="3.5" cy="3.5" r="3.5" /><g fill-rule="nonzero"><path d="M2 1.841c0-.188.145-.341.333-.341h2.334c.184 0 .333.152.333.341v2.327C5 4.904 4.407 5.5 3.675 5.5h-.35C2.593 5.5 2 4.91 2 4.168V1.841z" fill="#FFF" /><path d="M3.5 4.42c.414 0 .75-1.086.75-1.5a.75.75 0 10-1.5 0c0 .414.336 1.5.75 1.5z" fill="#1D50B5" /></g></g></g><rect stroke-opacity=".04" stroke="#000" mask="url(#ic-flag-pt_b)" x=".5" y=".5" width="23" height="15" rx="1" /></g></symbol><mask id="ic-flag-pt_b" fill="#fff"><use xlink:href="#ic-flag-pt_a" /></mask><symbol viewBox="0 0 24 16" id="ic-flag-ru"><g fill="none"><path d="M0 11h24v3a2 2 0 01-2 2H2a2 2 0 01-2-2v-3z" fill="#E53B35" /><path fill="#0C47B7" d="M0 5h24v6H0z" /><path d="M2 0h20a2 2 0 012 2v3H0V2a2 2 0 012-2z" fill="#FFF" /><rect stroke-opacity=".04" stroke="#000" x=".5" y=".5" width="23" height="15" rx="1" /></g></symbol><symbol viewBox="0 0 24 16" id="ic-flag-th"><g fill="none"><rect fill="#F12532" width="24" height="16" rx="2" /><path fill="#FFF" d="M0 3h24v10H0z" /><path fill="#322B6C" d="M0 5h24v6H0z" /><rect stroke-opacity=".04" stroke="#000" x=".5" y=".5" width="23" height="15" rx="1" /></g></symbol><symbol viewBox="0 0 24 16" id="ic-flag-uk"><defs><rect id="ic-flag-uk_a" x="0" y="0" width="24" height="16" rx="2" /></defs><g fill="none" fill-rule="evenodd"><use fill="#0D47A1" xlink:href="#ic-flag-uk_a" /><path d="M23.975 1.537A1.806 1.806 0 0022.203.013h-.468l-7.666 5.102V.013H9.931v5.102L2.265.013h-.468C.906.013.167.673.025 1.537l6.552 4.361H0v4.204h6.577l-6.552 4.36a1.806 1.806 0 001.772 1.525h.468l7.666-5.102v5.102h4.138v-5.102l7.666 5.102h.468c.891 0 1.63-.66 1.772-1.524l-6.552-4.361H24V5.898h-6.577l6.552-4.36z" fill="#FFF" fill-rule="nonzero" mask="url(#ic-flag-uk_b)" /><path d="M13.241.013V6.74H24v2.52H13.241v6.726H10.76V9.26H0V6.74h10.759V.013h2.482zM9.908 10.102l-8.746 5.767a1.793 1.793 0 01-.606-.389l-.124-.132 7.956-5.246h1.52zm6.329 0l7.527 4.963c-.113.2-.262.378-.439.521l-.137.102-8.471-5.586h1.52zM.725.373l8.378 5.525h-1.52L.19 1.023C.316.766.5.543.725.373zM22.824.125a1.8 1.8 0 01.735.517l-7.97 5.256h-1.52L22.824.125z" fill="#F44336" fill-rule="nonzero" mask="url(#ic-flag-uk_b)" /><rect stroke-opacity=".04" stroke="#000" mask="url(#ic-flag-uk_b)" x=".5" y=".5" width="23" height="15" rx="1" /></g></symbol><mask id="ic-flag-uk_b" fill="#fff"><use xlink:href="#ic-flag-uk_a" /></mask><symbol viewBox="0 0 24 16" id="ic-flag-vi"><g fill="none"><rect fill="#EA403F" width="24" height="16" rx="2" /><path fill="#FFFE4E" d="M12 10.45l-2.939 2.095 1.084-3.442-2.9-2.148 3.609-.033L12 3.5l1.146 3.422 3.609.033-2.9 2.148 1.084 3.442z" /><rect stroke-opacity=".04" stroke="#000" x=".5" y=".5" width="23" height="15" rx="1" /></g></symbol><symbol viewBox="0 0 24 16" id="ic-flag-zh-cn"><g fill="none" fill-rule="evenodd"><rect fill="#ED3C3C" width="24" height="16" rx="2" /><rect stroke-opacity=".04" stroke="#000" x=".5" y=".5" width="23" height="15" rx="1" /><path d="M7.742 7.186h1.04V13h-1.04V7.186zm7.453 5.77h-.952l-.255-.927.996.032c.244 0 .366-.161.366-.474V6.883h-4.11v-.938h5.15v5.922c0 .723-.399 1.09-1.196 1.09zM9.968 7.64h4.175v4.207H9.968V7.639zm3.2 3.355v-.863h-2.203v.863h2.203zM10.965 9.31h2.203v-.842h-2.203v.842zM9.082 5.503c.576.496 1.019.938 1.329 1.327l-.775.517c-.333-.41-.776-.863-1.33-1.38l.776-.464zm-.3-.874a7.406 7.406 0 01-.896 1.23L7 5.298C7.664 4.586 8.13 3.82 8.417 3l1.02.216c-.067.183-.145.356-.211.518h2.746v.895h-1.461c.232.324.42.636.564.917l-.93.334a9.512 9.512 0 00-.73-1.251h-.632zm4.707 0a6.6 6.6 0 01-.686 1.068l-.886-.561c.543-.658.93-1.37 1.152-2.125l1.007.216c-.066.172-.121.345-.177.507H17v.895h-1.661c.21.291.387.572.531.83l-.93.335a9.04 9.04 0 00-.697-1.165h-.754z" fill="#FFF" fill-rule="nonzero" /></g></symbol><symbol viewBox="0 0 24 16" id="ic-flag-zh-tw"><g fill="none" fill-rule="evenodd"><rect fill="#ED3C3C" width="24" height="16" rx="2" /><rect stroke-opacity=".04" stroke="#000" x=".5" y=".5" width="23" height="15" rx="1" /><path d="M8.602 4.413a18 18 0 01-.38.432h3.605c0 .431-.011.83-.033 1.175h.617v.648h-.67l-.098.68h.444v.528h-.563c-.022.065-.033.119-.054.173l.314.237c-.585.291-1.18.54-1.786.744a165.06 165.06 0 012.23-.075c.454-.227.908-.475 1.374-.734l.725.475a18.267 18.267 0 01-4.091 1.683 126.13 126.13 0 004.177-.248c-.238-.173-.487-.356-.746-.53l.725-.441c1.028.647 1.818 1.208 2.37 1.704l-.812.561a12.63 12.63 0 00-.768-.69c-.93.054-1.818.108-2.663.15v1.263c0 .56-.335.852-.995.852h-1.018l-.173-.82c.314.033.617.054.899.054.205 0 .313-.108.313-.302v-1.003c-1.287.065-2.478.108-3.56.14l-.217-.841c.282.01.552.021.823.021.78-.162 1.59-.42 2.446-.766l-2.468.087-.151-.712c.368 0 .617-.033.768-.097a12.58 12.58 0 001.44-.637c.021-.086.054-.173.075-.248H7.574c.075-.41.14-.81.205-1.208h-.703V6.02h.779c.043-.312.076-.614.097-.916-.14.129-.281.258-.422.366L7 4.834c.595-.442 1.115-1.047 1.548-1.823l.844.183c-.098.173-.195.345-.292.507h3.181v.712h-3.68zm0 2.168l-.13.766h1.656a7.341 7.341 0 00-1.147-.41l.227-.356h-.606zm1.558.766h.671a9.43 9.43 0 00.13-.766h-1.71c.422.12.8.249 1.147.4l-.238.366zm.844-1.219l.033-.766H8.742c-.021.26-.054.518-.086.766h1.504a6.009 6.009 0 00-1.017-.399l.249-.356c.39.108.757.26 1.093.432l-.206.323h.725zm2.587-1.337a3.23 3.23 0 00.941 1.424c.347-.41.617-.885.79-1.424h-1.731zm.335 1.985a4.244 4.244 0 01-.876-1.316 7.07 7.07 0 01-.52.582l-.54-.647c.562-.583 1.049-1.381 1.46-2.395l.877.194c-.108.28-.227.54-.346.788h2.813v.809h-.627c-.195.776-.52 1.413-.953 1.93.498.324 1.093.594 1.786.82l-.465.81c-.78-.28-1.429-.615-1.948-1.004-.542.432-1.202.745-1.96.95l-.475-.745c.714-.172 1.298-.431 1.774-.776zm-.173 4.347c1.082.259 2.078.583 2.976.97l-.519.81a16.903 16.903 0 00-2.965-1.025l.508-.755zm-3.798.043l.54.615c-.8.453-1.785.83-2.943 1.133l-.379-.799c1.126-.237 2.056-.56 2.782-.949z" fill="#FFF" fill-rule="nonzero" /></g></symbol></defs></svg>