<svg xmlns="http://www.w3.org/2000/svg" xmlns:xlink="http://www.w3.org/1999/xlink"><defs><symbol viewBox="0 0 118 85" id="ic-mt5-device-desktop"><g fill="none" fill-rule="evenodd"><g transform="translate(47 27)"><rect width="24" height="24" fill="#85ACB0" fill-rule="nonzero" rx="4.5" /><path fill="#FFF" fill-rule="nonzero" d="M13.931 8.059l-1.71-3.424a.248.248 0 00-.442 0L10.08 8.033 12 11.91l1.931-3.851zm-4.267 2.464l1.102 2.227-.165.322-.75 1.5H7.642l1.193-2.38.829-1.658v-.011zm0-1.65l-1.5 3-1.729 3.457h3.862l.953-1.939.341-.641-1.923-3.889-.004.011zm4.395 7.17l1.717 3.457h3.477a.248.248 0 00.22-.375l-1.548-3.082h-3.866zm.285-5.502l.821 1.639 1.193 2.381h-2.206l-.907-1.811 1.099-2.201v-.008zm0-1.646L12.42 12.75l1.271 2.565h3.863l-1.729-3.469-1.5-2.959.019.008zm-4.403 7.148H6.075l-1.549 3.1a.248.248 0 00.221.376h3.466l1.728-3.476zm2.832.742l.982 1.965h-3.518l.99-1.976h1.546v.011zm.46-.761H10.77L9.041 19.5h5.91l-1.717-3.457v-.02z" /><path d="M0 0h24v24H0z" /><path d="M0 0h24v24H0z" /></g><path stroke="#C6E4E4" stroke-width="2" d="M42.477 84h33.046l-3.2-8H45.677l-3.2 8z" /><rect width="116" height="75" x="1" y="1" stroke="#C6E4E4" stroke-width="2" rx="4" /><path stroke="#C6E4E4" stroke-linecap="round" stroke-width="2" d="M32 84h54" /><rect width="106" height="65" x="6" y="6" stroke="#C6E4E4" stroke-width="2" rx="3" /></g></symbol><symbol viewBox="0 0 75 51" id="ic-mt5-device-laptop"><g fill="none" fill-rule="evenodd"><g transform="translate(30 15)"><rect width="16" height="16" fill="#85ACB0" fill-rule="nonzero" rx="3" /><path fill="#FFF" fill-rule="nonzero" d="M9.287 5.372L8.147 3.09a.165.165 0 00-.295 0L6.72 5.355 8 7.94l1.287-2.568zM6.442 7.015L7.178 8.5l-.11.215-.5 1H5.095l.795-1.588.553-1.105v-.007zm0-1.1l-1 2L4.29 10.22h2.575L7.5 8.927l.228-.427-1.283-2.593-.003.008zm2.931 4.78L10.518 13h2.317a.165.165 0 00.147-.25l-1.032-2.055H9.373zm.19-3.668l.547 1.093.795 1.588h-1.47L8.83 8.5l.732-1.468v-.005zm0-1.097L8.28 8.5l.848 1.71h2.575L10.55 7.897l-1-1.972.012.005zm-2.935 4.765H4.05l-1.032 2.067a.165.165 0 00.147.25h2.31l1.153-2.317zm1.887.495l.655 1.31H6.825l.66-1.318h1.03v.008zm.307-.508H7.18L6.028 13h3.94l-1.146-2.305v-.013z" /><path d="M0 0h16v16H0z" /><path d="M0 0h16v16H0z" /></g><rect width="59" height="35" x="8" y="5" stroke="#C6E4E4" stroke-width="2" rx="2" /><path stroke="#C6E4E4" stroke-width="2" d="M2 44a1 1 0 00-1 1v2a3 3 0 003 3h67a3 3 0 003-3v-2a1 1 0 00-1-1H2zm2 0h67V4a3 3 0 00-3-3H7a3 3 0 00-3 3v40z" /><path stroke="#C6E4E4" stroke-width="2" d="M33 44v1a1 1 0 001 1h8a1 1 0 001-1v-1H33z" /></g></symbol><symbol viewBox="0 0 48 74" id="ic-mt5-device-phone"><g fill="none" fill-rule="evenodd"><g transform="translate(16 29)"><rect width="16" height="16" fill="#85ACB0" fill-rule="nonzero" rx="3" /><path fill="#FFF" fill-rule="nonzero" d="M9.287 5.372L8.147 3.09a.165.165 0 00-.295 0L6.72 5.355 8 7.94l1.287-2.568zM6.442 7.015L7.178 8.5l-.11.215-.5 1H5.095l.795-1.588.553-1.105v-.007zm0-1.1l-1 2L4.29 10.22h2.575L7.5 8.927l.228-.427-1.283-2.593-.003.008zm2.931 4.78L10.518 13h2.317a.165.165 0 00.147-.25l-1.032-2.055H9.373zm.19-3.668l.547 1.093.795 1.588h-1.47L8.83 8.5l.732-1.468v-.005zm0-1.097L8.28 8.5l.848 1.71h2.575L10.55 7.897l-1-1.972.012.005zm-2.935 4.765H4.05l-1.032 2.067a.165.165 0 00.147.25h2.31l1.153-2.317zm1.887.495l.655 1.31H6.825l.66-1.318h1.03v.008zm.307-.508H7.18L6.028 13h3.94l-1.146-2.305v-.013z" /><path d="M0 0h16v16H0z" /><path d="M0 0h16v16H0z" /></g><rect width="46" height="72" x="1" y="1" stroke="#C6E4E4" stroke-width="2" rx="4" /><path stroke="#C6E4E4" stroke-width="2" d="M1 11h46V4a3 3 0 00-3-3H4a3 3 0 00-3 3v7z" /><circle cx="23.5" cy="6.5" r="1.5" stroke="#C6E4E4" /><path stroke="#C6E4E4" stroke-width="2" d="M1 61v9a3 3 0 003 3h40a3 3 0 003-3v-9H1z" /><circle cx="24" cy="67" r="2.5" stroke="#C6E4E4" /></g></symbol><symbol viewBox="0 0 133 106" id="ic-mt5-device-tablet"><g fill="none" fill-rule="evenodd"><g transform="translate(54 42)"><rect width="24" height="24" fill="#85ACB0" fill-rule="nonzero" rx="4.5" /><path fill="#FFF" fill-rule="nonzero" d="M13.931 8.059l-1.71-3.424a.248.248 0 00-.442 0L10.08 8.033 12 11.91l1.931-3.851zm-4.267 2.464l1.102 2.227-.165.322-.75 1.5H7.642l1.193-2.38.829-1.658v-.011zm0-1.65l-1.5 3-1.729 3.457h3.862l.953-1.939.341-.641-1.923-3.889-.004.011zm4.395 7.17l1.717 3.457h3.477a.248.248 0 00.22-.375l-1.548-3.082h-3.866zm.285-5.502l.821 1.639 1.193 2.381h-2.206l-.907-1.811 1.099-2.201v-.008zm0-1.646L12.42 12.75l1.271 2.565h3.863l-1.729-3.469-1.5-2.959.019.008zm-4.403 7.148H6.075l-1.549 3.1a.248.248 0 00.221.376h3.466l1.728-3.476zm2.832.742l.982 1.965h-3.518l.99-1.976h1.546v.011zm.46-.761H10.77L9.041 19.5h5.91l-1.717-3.457v-.02z" /><path d="M0 0h24v24H0z" /><path d="M0 0h24v24H0z" /></g><rect width="131" height="104" x="1" y="1" stroke="#C6E4E4" stroke-width="2" rx="8" /><circle cx="8.5" cy="53.5" r="1.5" stroke="#C6E4E4" /><circle cx="124" cy="53" r="2" stroke="#C6E4E4" /><rect width="102" height="89" x="15" y="9" stroke="#C6E4E4" stroke-width="2" rx="4" /></g></symbol><symbol viewBox="0 0 128 128" id="ic-mt5-expired"><g fill="none" transform="translate(18 5)"><rect width="90.28" height="8.32" x=".86" y=".33" fill="#BCCDCE" rx="2.82" /><rect width="90.28" height="8.32" x=".86" y="109.35" fill="#BCCDCE" rx="2.82" /><path fill="#FFF" d="M38.06 55.64S9.62 36.18 9.62 8.64h72.86s-.55 29-28.82 47c-3.11 1.72-1.65 4-.91 4.77.74.77 29.73 17.43 29.73 48.45H9.62S9.8 81 39.17 60.59c2.75-2.93-1.11-4.95-1.11-4.95z" /><path fill="#BCCDCE" d="M82.48 110.79H9.62a1.93 1.93 0 01-1.93-1.94c0-1.18.53-29 30.19-49.71.25-.29.38-.54.35-.7-.06-.37-.72-.92-1.06-1.1a1.18 1.18 0 01-.19-.11c-1.2-.82-29.29-20.35-29.29-48.58a1.92 1.92 0 011.93-1.92h72.86a1.91 1.91 0 011.37.57 2 2 0 01.55 1.39c0 1.23-.9 30.24-29.7 48.57-.74.41-1 .74-1 .91a1.3 1.3 0 00.42.87l.42.26c11.15 7.48 29.87 23.87 29.87 49.56a1.93 1.93 0 01-1.93 1.93zm-70.79-3.86h68.82c-.91-22.8-17.89-37.56-28.13-44.43a7.75 7.75 0 01-1-.73A4.68 4.68 0 0152.73 54 60 60 0 0080.4 10.58H11.59C12.84 35.16 37.6 53 39.08 54A5.88 5.88 0 0142 57.8a4.7 4.7 0 01-1.45 4.11 2 2 0 01-.31.27c-23.72 16.47-27.84 38.21-28.55 44.75z" /><path fill="#C7E5E5" d="M14.94 106.93S18.8 82.16 39.6 69.46c7.47-4.36 14.69 1.12 14.69 1.12s21.54 14.94 22.54 36.35H14.94z" /><path fill="#FFF" d="M45.5 60.59s-3.39 5.24.12 5.24c2.18 0 2.03-2.1-.12-5.24z" /><path fill="#C7E5E5" d="M45.67 60.12s-4 6.17.15 6.17c3 0 2.39-2.47-.15-6.17" /><path fill="#E0F4F3" d="M36.1 73.85C29.53 78.29 24.05 87.62 23 95.37c-.06.45.52.71.73.3 3.74-7.46 5.84-13.12 13.14-21.06.4-.46-.26-1.11-.77-.76z" /></g></symbol><symbol viewBox="0 0 24 24" id="ic-mt5-financial"><g fill="none"><circle cx="12" cy="12" r="12" fill="#FF6444" /><path fill="#FFF" fill-opacity=".56" d="M18.64 8.164a1.5 1.5 0 011.819 2.385l-.101.075-7.5 5.25a1.5 1.5 0 01-1.984-.233l-.079-.097L9.34 13.6l-4.09 2.344a1.501 1.501 0 01-1.985-.458l-.067-.093a1.5 1.5 0 01.457-1.984l.102-.06 5.25-3a1.5 1.5 0 011.875.304l.078.097 1.38 1.838 6.3-4.425z" /></g></symbol><symbol viewBox="0 0 64 64" id="ic-mt5-financial-platform"><g fill="none"><path fill="#333" d="M28 48h8v4h15.5a.5.5 0 01.5.5v7a.5.5 0 01-.5.5h-39a.5.5 0 01-.5-.5v-7a.5.5 0 01.5-.5H28v-4z" /><g transform="translate(0 8)"><rect width="64" height="40" fill="#FF6444" rx="1" /><path fill="#FFF" fill-opacity=".56" d="M49.708 8.77a3.999 3.999 0 014.849 6.36l-.27.2-20 14a4.002 4.002 0 01-5.29-.62l-.21-.26-3.88-5.18-10.91 6.25a4 4 0 01-5.29-1.22l-.18-.25a4 4 0 011.22-5.29l.27-.16 14-8a3.999 3.999 0 015 .81l.21.26 3.68 4.9 16.8-11.8z" /></g></g></symbol><symbol viewBox="0 0 24 24" id="ic-mt5-financial-stp"><g fill="none"><circle cx="12" cy="12" r="12" fill="#FF444F" /><path fill="#FFF" fill-opacity=".56" d="M18.64 8.164a1.5 1.5 0 011.819 2.385l-.101.075-7.5 5.25a1.5 1.5 0 01-1.984-.233l-.079-.097L9.34 13.6l-4.09 2.344a1.501 1.501 0 01-1.985-.458l-.067-.093a1.5 1.5 0 01.457-1.984l.102-.06 5.25-3a1.5 1.5 0 011.875.304l.078.097 1.38 1.838 6.3-4.425z" /><rect width="13" height="7" fill="#333" rx="1.116" /><path fill="#FFF" fill-opacity=".57" d="M3.23 1.702c.197-.002.391.034.574.105.168.064.32.162.448.289.125.124.216.278.264.448l-.625.137a.726.726 0 00-.245-.358.764.764 0 00-.434-.115c-.1 0-.197.022-.289.061a.499.499 0 00-.23.155.36.36 0 00-.08.235.357.357 0 00.159.303c.148.095.314.158.487.185l.202.04c.744.147 1.116.487 1.116 1.01a1.02 1.02 0 01-.39.802c-.13.1-.276.176-.433.224-.176.059-.36.09-.545.09a1.666 1.666 0 01-.61-.104 1.354 1.354 0 01-.48-.293 1.076 1.076 0 01-.279-.473l.628-.137c.049.15.149.277.282.36.139.086.3.13.462.124a.827.827 0 00.361-.069.639.639 0 00.246-.184.427.427 0 00.09-.27.386.386 0 00-.151-.311 1.127 1.127 0 00-.474-.203l-.202-.036a1.71 1.71 0 01-.88-.372.833.833 0 01-.279-.628.855.855 0 01.101-.415c.067-.126.16-.237.271-.325.123-.096.263-.17.412-.217a1.65 1.65 0 01.523-.058zm4.64 0v.535H6.74v3.04h-.668v-3.04H4.938v-.535h2.933zm1.802 0c.274-.007.545.042.799.145.205.081.383.222.509.404.121.19.183.41.177.636.005.221-.06.44-.188.62a1.178 1.178 0 01-.524.409 2.03 2.03 0 01-.801.144h-.232c-.083 0-.17 0-.26-.025v1.242h-.657V1.702h1.178zm-.01.51l-.51.01v1.25l.242.025h.224c.225.012.449-.046.64-.166a.574.574 0 00.22-.477.577.577 0 00-.213-.473.94.94 0 00-.603-.17z" /></g></symbol><symbol viewBox="0 0 64 64" id="ic-mt5-financial-stp-platform"><g fill="none"><path fill="#333" d="M28 48h8v4h15.5a.5.5 0 01.5.5v7a.5.5 0 01-.5.5h-39a.5.5 0 01-.5-.5v-7a.5.5 0 01.5-.5H28v-4z" /><g transform="translate(0 8)"><rect width="64" height="40" fill="#FF444F" rx="1" /><path fill="#FFF" fill-opacity=".56" d="M49.708 8.77a3.999 3.999 0 014.849 6.36l-.27.2-20 14a4.002 4.002 0 01-5.29-.62l-.21-.26-3.88-5.18-10.91 6.25a4 4 0 01-5.29-1.22l-.18-.25a4 4 0 011.22-5.29l.27-.16 14-8a3.999 3.999 0 015 .81l.21.26 3.68 4.9 16.8-11.8z" /></g><rect width="36" height="20" fill="#333" rx=".515" /><path fill="#FFF" fill-opacity=".57" d="M8.93 5.006a4.299 4.299 0 011.59.29c.465.177.887.45 1.24.8.346.344.597.77.73 1.24l-1.73.38a2 2 0 00-.68-.99 2.1 2.1 0 00-1.2-.32 2.08 2.08 0 00-.8.17c-.25.08-.472.228-.64.43a.996.996 0 00-.22.65.998.998 0 00.44.84c.41.262.87.436 1.35.51l.56.11c2.06.41 3.09 1.35 3.09 2.8.006.423-.09.842-.28 1.22a2.81 2.81 0 01-.8 1c-.36.277-.766.487-1.2.62a4.877 4.877 0 01-1.51.25 4.661 4.661 0 01-1.69-.29 3.802 3.802 0 01-1.33-.81 2.994 2.994 0 01-.77-1.31l1.74-.38c.135.414.41.768.78 1 .384.237.83.355 1.28.34.343.013.685-.052 1-.19.264-.113.498-.288.68-.51a1.19 1.19 0 00.25-.75 1.07 1.07 0 00-.42-.86 3.123 3.123 0 00-1.31-.56l-.56-.1a4.748 4.748 0 01-2.44-1.03 2.309 2.309 0 01-.77-1.74c-.006-.4.09-.797.28-1.15.186-.348.442-.654.75-.9.341-.266.727-.47 1.14-.6a4.55 4.55 0 011.45-.16zm12.85 0v1.48h-3.13v8.42H16.8v-8.42h-3.14v-1.48h8.12zm7.2.4c.57.226 1.06.616 1.41 1.12.336.524.507 1.138.49 1.76a2.872 2.872 0 01-.52 1.72 3.26 3.26 0 01-1.45 1.13 5.618 5.618 0 01-2.22.4h-.64c-.23 0-.47 0-.72-.07v3.44h-1.82v-9.9h3.26a5.5 5.5 0 012.21.4zm-2.24 1.01l-1.41.03v3.46l.67.07h.62a2.997 2.997 0 001.77-.46 1.58 1.58 0 00.61-1.32 1.59 1.59 0 00-.59-1.31 2.59 2.59 0 00-1.67-.47z" /></g></symbol><symbol fill="none" viewBox="0 0 33 33" id="ic-mt5-high-leverage"><path opacity=".01" fill="#fff" stroke="#979797" d="M0 0h32v32H0z" /><path fill-rule="evenodd" clip-rule="evenodd" d="M0 29.334a2.667 2.667 0 002.667 2.667H24a2.667 2.667 0 002.667-2.667v-1.555H0v1.555z" fill="#85ACAF" /><g mask="url(#ic-mt5-high-leverage_a)"><path fill-rule="evenodd" clip-rule="evenodd" d="M17.754 20.19v3.965h-2.153V20.19H13.45l2.152-2.865 1.077-1.433 1.076 1.433 2.153 2.865h-2.153zm-6.689.376L9.99 21.998l-1.076-1.432-2.153-2.865h2.153v-3.965h2.152v3.965h2.152l-2.152 2.865zM24 9.21H2.667A2.667 2.667 0 000 11.878V26.68h26.667V11.878A2.667 2.667 0 0024 9.21z" fill="#85ACAF" /></g><path fill-rule="evenodd" clip-rule="evenodd" d="M23 0a9 9 0 100 18 9 9 0 000-18z" fill="#FF444F" /><path fill-rule="evenodd" clip-rule="evenodd" d="M21.418 6.21A1.21 1.21 0 1019 6.208a1.21 1.21 0 002.418 0zm.159 6.764h-1.76L24.891 5h1.76l-5.075 7.974zm3.004-1.183a1.21 1.21 0 112.419 0 1.21 1.21 0 01-2.419 0z" fill="#fff" /></symbol><mask id="ic-mt5-high-leverage_a" maskUnits="userSpaceOnUse" x="0" y="9" width="27" height="18"><path fill-rule="evenodd" clip-rule="evenodd" d="M0 9.21h26.667v17.47H0V9.21z" fill="#fff" /></mask><symbol fill="none" viewBox="0 0 32 32" id="ic-mt5-liquid-risk"><path fill-rule="evenodd" clip-rule="evenodd" d="M17.149 30.12l.087-2.845 1.185.037.05-1.66 1.778.055.08-2.608 1.239-1.742 1.203-.556 1.882.532 1.142 1.458 2.24.425s-3.033 6.163-10.886 6.904zm-4.588-5.358l-.948-.21-.841-1.474.947-1.369.818-.45.656.45.21 1.264.106 1.052-.948.737zm-4.077-2.553l.726.999-.908 1.226-2.634-.727-3.587-3.678a40.991 40.991 0 01-.372-3.372 14.519 14.519 0 012.503-8.774l.773-1.123 1.426.857.526.842 1.474.948.947.631.316.737v1.052c0 .738.421 4.106.421 4.106l-1.052 1.474-1.369.947s-.316.527-.316 1.053V21.3l1.126.908zm21.477-6.21l-.028.718a.582.582 0 01-.729.54l-1.03-.27-.6-.987H16V0C10.877 0 6.32 2.411 3.391 6.157A15.926 15.926 0 00.02 16.736C.404 25.23 7.411 32 16 32c8.837 0 16-7.163 16-16h-2.039z" fill="#85ACAF" /><path fill-rule="evenodd" clip-rule="evenodd" d="M23.826 2.367h-5.478l-2.907 5.007H7.75a1.663 1.663 0 01-3.171-.705 1.667 1.667 0 013.208-.628h6.884l2.908-5.008h6.213a1.666 1.666 0 111.54 2.3 1.662 1.662 0 01-1.507-.966zM22.684 12.49H19.61V3.743h3.073v8.748zm-7.389 0h3.073V8.588h-3.073v3.905zm-1.242.001h-3.032V9.313h3.032v3.18zM27 14.732H11.02v-1.287H27v1.287zm-3.073-2.24H27V5.378h-3.073v7.114z" fill="#FF444F" /></symbol><symbol fill="none" viewBox="0 0 16 16" id="ic-mt5-margin-trading"><path d="M13 0a3 3 0 013 3v10a3 3 0 01-3 3H3a3 3 0 01-3-3V3a3 3 0 013-3h10z" fill="#33658A" /><path fill-rule="evenodd" clip-rule="evenodd" d="M13.5 11.25a2.25 2.25 0 10-4.5 0 2.25 2.25 0 004.5 0zm-1 0a1.25 1.25 0 10-2.5 0 1.25 1.25 0 002.5 0zM7 4.75a2.25 2.25 0 10-4.5 0 2.25 2.25 0 004.5 0zm-1 0a1.25 1.25 0 10-2.5 0 1.25 1.25 0 002.5 0z" fill="#fff" /><path d="M12.146 3.146a.5.5 0 01.75.66l-.042.048-9 9a.5.5 0 01-.75-.66l.042-.048 9-9z" fill="#fff" /></symbol><symbol fill="none" viewBox="0 0 33 33" id="ic-mt5-open-markets"><path opacity=".01" fill="#fff" stroke="#979797" d="M0 0h32v32H0z" /><path fill-rule="evenodd" clip-rule="evenodd" d="M10.471 5.877L0 10.458v8.585c0 4.616 2.666 8.867 6.956 11.091l3.515 1.822 3.515-1.822c4.29-2.224 6.956-6.475 6.956-11.091v-8.585l-10.47-4.581z" fill="#85ACAF" /><path fill-rule="evenodd" clip-rule="evenodd" d="M16.763 21.238H15.71v1.51h-1.4v-1.51h-3.616v-1.254l3.19-5.049h1.826v4.094h-1.4v-2.66h-.028l-2.328 3.726h4.808v1.143zm-6.942 1.51H4.314v-1.365l2.507-2.138c.419-.359.728-.684.93-.98.201-.294.303-.61.303-.945v-.113c0-.373-.106-.656-.314-.85-.21-.195-.5-.291-.874-.291-.41 0-.723.111-.94.335-.217.224-.374.5-.47.829l-1.276-.482c.081-.253.2-.497.352-.733.153-.235.344-.442.571-.62.228-.18.5-.324.813-.432.313-.108.67-.162 1.074-.162.418 0 .79.057 1.113.174.325.115.6.275.823.48.224.206.394.45.51.734.115.284.173.593.173.929 0 .321-.05.616-.151.884-.1.27-.24.524-.42.767a4.93 4.93 0 01-.632.7c-.242.224-.506.448-.789.671l-1.701 1.377H9.82v1.232z" fill="#fff" /><path fill-rule="evenodd" clip-rule="evenodd" d="M31.347 16.336h-2.413c0-7.318-5.953-13.27-13.27-13.27V.651c8.647 0 15.683 7.036 15.683 15.684z" fill="#FF444F" /><path fill-rule="evenodd" clip-rule="evenodd" d="M26.818 16.337h-2.412c0-4.82-3.922-8.743-8.742-8.743V5.182c6.151 0 11.154 5.004 11.154 11.155z" fill="#FF444F" /><path fill-rule="evenodd" clip-rule="evenodd" d="M22.053 16.337h-2.412a3.981 3.981 0 00-3.977-3.977V9.947a6.397 6.397 0 016.389 6.39z" fill="#FF444F" /></symbol><symbol viewBox="0 0 128 128" id="ic-mt5-password-updated"><g fill="none" transform="translate(40 4)"><circle cx="24.25" cy="50.28" r="24.18" fill="#C7E5E5" /><circle cx="24.25" cy="40.46" r="5.05" fill="#FFF" /><path fill="#C7E5E5" d="M12.73 71.55v8.96h5.32v6.97l-4.83 1.88v2.03l1.8 1.97v1.72l-1.29 1.29v2.78l4.32 2.75v8.56l6.37 6.38 7.23-7.24V73.31z" /><path fill="#E0F4F3" d="M25.44 80.03h2.61v28.58h-2.61z" /><path fill="#BCCDCE" d="M20.39 0A20.38 20.38 0 000 20.38a20.078 20.078 0 005.82 14.25 30.907 30.907 0 012.45-2.46 16.194 16.194 0 01-4.76-11.75 16.88 16.88 0 1116.83 16.83 4.78 4.78 0 00-1.15 3.45c.4 0 .79.07 1.2.07 11.083-.245 19.939-9.3 19.939-20.385S31.473.245 20.39 0z" /><g transform="translate(22 76)"><ellipse cx="23.01" cy="23" fill="#84ABAE" rx="23.01" ry="23" /><path fill="#FFF" d="M21.4 30.38c-.247 0-.487-.085-.68-.24l-6.06-5a1.09 1.09 0 01-.15-1.51 1.072 1.072 0 011.51-.15l5.23 4.28 9.45-11.61a1.07 1.07 0 111.66 1.35L22.24 30a1.08 1.08 0 01-.73.39l-.11-.01z" /></g></g></symbol><symbol fill="none" viewBox="0 0 33 33" id="ic-mt5-responsive"><path opacity=".01" fill="#fff" stroke="#979797" d="M0 0h32v32H0z" /><path fill-rule="evenodd" clip-rule="evenodd" d="M4 29.307a1.35 1.35 0 112.7 0 1.35 1.35 0 01-2.7 0zm4.923-16.35h-7.18c-.962 0-1.743.838-1.743 1.871v15.259c0 1.032.78 1.87 1.743 1.87h7.514c.962 0 1.743-.838 1.743-1.87V14.828c0-1.033-.78-1.871-1.743-1.871" fill="#85ACAF" /><g mask="url(#ic-mt5-responsive_a)"><path fill-rule="evenodd" clip-rule="evenodd" d="M29.942 18.98V2.725C29.942 1.219 28.783 0 27.353 0H4.663c-1.43 0-2.588 1.22-2.588 2.725v9.198h2.044V3.441c0-.752.61-1.362 1.362-1.362h21.056c.752 0 1.362.61 1.362 1.362v14.845h-9.872v.833h-4.054v-.833H12v3.073h18.638c.752 0 1.362-.61 1.362-1.363V18.98h-2.058z" fill="#85ACAF" /></g><path fill-rule="evenodd" clip-rule="evenodd" d="M11 6v1.892h3.886l-8.994 8.994V13H4v7h7v-1.892H7.345l8.763-8.763V13H18V6h-7z" fill="#FF444F" /></symbol><mask id="ic-mt5-responsive_a" maskUnits="userSpaceOnUse" x="2" y="0" width="30" height="22"><path fill-rule="evenodd" clip-rule="evenodd" d="M2.075 0H32v21.359H2.075V0z" fill="#fff" /></mask><symbol fill="none" viewBox="0 0 33 33" id="ic-mt5-support"><path opacity=".01" fill="#fff" stroke="#979797" d="M0 0h32v32H0z" /><g mask="url(#ic-mt5-support_a)"><path fill-rule="evenodd" clip-rule="evenodd" d="M23.424 18.558h-.325V13.26c0-5.214-4.242-9.456-9.457-9.456h-2.63c-5.215 0-9.457 4.242-9.457 9.456v5.3H1.23c-.68 0-1.23.55-1.23 1.23v3.862c0 .68.55 1.23 1.23 1.23h2.495v-6.323h-.94V13.26c0-4.536 3.69-8.227 8.227-8.227h2.63c4.537 0 8.227 3.69 8.227 8.227v5.3h-.94v6.322h2.495c.68 0 1.23-.55 1.23-1.23v-3.863c0-.68-.55-1.23-1.23-1.23z" fill="#85ACAF" /></g><g mask="url(#ic-mt5-support_b)"><path fill-rule="evenodd" clip-rule="evenodd" d="M18.472 18.559v-1.674c0-2.367-1.615-2.506-1.8-2.514l-1.77-.04v1.565l-.448.127c-3.107.884-6.68-.177-8.276-.786v3.322H4.95v3.893l3.76 3.93h4.37a.615.615 0 110 1.23H8.447a.616.616 0 01-.444-.19l-3.054-3.191v1.831c0 .652.26 1.278.72 1.74l3.478 3.477a2.457 2.457 0 001.74.721h2.88a2.46 2.46 0 001.74-.72l3.478-3.479a2.46 2.46 0 00.72-1.739V18.56h-1.233z" fill="#85ACAF" /></g><path fill-rule="evenodd" clip-rule="evenodd" d="M12.85 6.096l-1.134.006a7.984 7.984 0 00-7.938 7.984v2.72c0 .763.49 1.404 1.17 1.646v-5.109l.88.416c.042.02 4.279 1.954 7.843 1.192v-1.88l3.036.07c1.036.025 2.995.84 2.995 3.744v1.566h.004a1.75 1.75 0 001.17-1.648v-2.725c0-4.425-3.6-8.007-8.026-7.982z" fill="#85ACAF" /><path fill-rule="evenodd" clip-rule="evenodd" d="M24 0a8 8 0 100 16 8 8 0 000-16z" fill="#FF444F" /><path fill-rule="evenodd" clip-rule="evenodd" d="M22.867 11.335L20 8.468l1.202-1.202 1.665 1.666L26.798 5 28 6.202l-5.133 5.133z" fill="#fff" /></symbol><mask id="ic-mt5-support_a" maskUnits="userSpaceOnUse" x="0" y="3" width="25" height="22"><path fill-rule="evenodd" clip-rule="evenodd" d="M0 3.803h24.654V24.88H0V3.803z" fill="#fff" /></mask><mask id="ic-mt5-support_b" maskUnits="userSpaceOnUse" x="4" y="14" width="16" height="18"><path fill-rule="evenodd" clip-rule="evenodd" d="M4.949 14.33h14.756V32H4.95V14.33z" fill="#fff" /></mask><symbol viewBox="0 0 24 24" id="ic-mt5-synthetic"><g fill="none" fill-rule="evenodd"><circle cx="12" cy="12" r="12" fill="#85ACB0" fill-rule="nonzero" /><path fill="#C9DBDC" d="M17.092 12.797l1.079-.001-3.03 4.321-2.02-4.321h1.105l.044-.001h.004l.004-.001a.797.797 0 00-.059-1.59H13.4l3.031-4.322 2.02 4.321h-1.37l-.035.002h-.007l-.006.001a.796.796 0 00.059 1.591zm-8.187 5.11l.63-.96.026-.043.002-.004.005-.008a.793.793 0 00.095-.38.798.798 0 00-1.463-.437l-.654.997-1.998-4.276h4.847l-.632.965-.024.04-.002.002-.004.008a.798.798 0 00.271 1.052.788.788 0 00.414.125h.049l.006-.001h.006a.795.795 0 00.621-.36l.294-.447.358-.548 1.999 4.276H8.905zM8.839 6.909l.346.78.02.039.003.006.002.004a.795.795 0 001.017.353.796.796 0 00.413-1.054l-.418-.943h4.815l-3.01 4.294-.345-.778-.02-.042-.003-.003-.002-.005a.797.797 0 00-.702-.418h-.003a.796.796 0 00-.726 1.118l.418.944H5.828L8.84 6.908zm11.586 4.755l-3.13-6.7-.05-.086-.004-.01-.015-.021-.003-.006-.022-.03-.004-.005-.008-.01-.008-.01-.02-.024-.005-.004-.013-.014-.007-.007-.015-.015-.003-.003-.02-.018-.009-.009-.058-.043-.008-.007-.025-.016-.01-.007-.06-.033-.008-.004-.04-.018-.008-.003-.01-.006-.041-.014-.012-.004-.01-.003-.034-.008-.011-.004-.01-.002-.033-.007h-.007l-.015-.004h-.006l-.033-.004h-.005l-.016-.002h-.007l-.035-.001-.004-.001H8.979l-.084.007h-.018l-.022.006-.07.016-.008.002-.027.008-.011.004-.018.007-.033.012v.001l-.046.02-.008.004-.008.005a.758.758 0 00-.238.192l-.015.017-.003.004-.016.021-.002.003-.004.004-.004.006-4.687 6.686-.004.004-.039.06-.01.019-.007.01-.017.034-.001.003-.008.016-.002.004-.016.038-.001.003-.006.016v.004l-.014.041-.001.003-.003.01-.003.01-.01.044v.002l-.001.007-.002.01-.006.042-.001.005-.002.022v.003l-.003.053v.01l.001.05.001.018.017.106.002.013.008.027.001.007.013.039.002.005.003.009.003.008.017.042.002.004.002.006 3.136 6.708.002.004.002.003.002.004v.003l.006.01.004.01.001.002.008.013.006.012.042.064.005.008.016.021.003.005.02.024.004.003.015.017.004.005.018.018.003.003.019.02.021.018.004.002.023.02.009.006.02.015.023.016h.001l.005.004.005.004.007.005.032.018.004.003.027.013.026.013.004.002.018.008.005.002.03.012.007.002.016.006.008.003.023.008.006.001.028.007.01.002.006.002.008.002.037.006.013.003.01.001.033.004h.005l.015.002h.008l.037.001h7.595l.03-.001h.017l.01-.001.032-.004.005-.001.025-.004.009-.001.029-.007.019-.004.009-.002.036-.01.009-.003.012-.004.037-.015.017-.006.013-.004.011-.007.013-.005.008-.004.019-.01.026-.014.003-.002.021-.013.008-.005.068-.05.01-.007.016-.014.013-.01.095-.108.011-.012 4.707-6.714.001-.001a.798.798 0 00.069-.794z" /></g></symbol><symbol fill="none" viewBox="0 0 136 136" id="ic-mt5-synthetic-dashboard"><path d="M0 27C0 12.088 12.088 0 27 0h82c14.912 0 27 12.088 27 27v82c0 14.912-12.088 27-27 27H27c-14.912 0-27-12.088-27-27V27z" fill="#85ACB0" /><path fill-rule="evenodd" clip-rule="evenodd" d="M89.109 98.614L73.585 71.278h10.302l2.773-5.558H73.305L89.08 38.336l15.778 27.384h-12.01l-2.773 5.558h14.781L89.109 98.614zM32.148 71.278h31.55l-3.99 7.081 3.059 5.653 5.878-10.202 15.69 27.632h-31.61l7.05-12.235-3.059-5.652-8.793 15.109-15.775-27.386zm16.065-33.444L56.18 51.84l3.603-4.866L53.3 35.556h30.978l-15.6 27.08-5.902-10.395-3.603 4.868 4.876 8.611H32.146l16.067-27.886zM111.26 65.72L92.282 32.78A5.54 5.54 0 0087.48 30H49.523a5.54 5.54 0 00-4.802 2.779L25.744 65.72a5.575 5.575 0 000 5.558L44.72 104.22a5.545 5.545 0 004.804 2.78H87.48c1.98 0 3.811-1.06 4.802-2.779l18.978-32.943a5.576 5.576 0 000-5.558z" fill="#fff" /></symbol><symbol fill="none" viewBox="0 0 16 16" id="ic-mt5-synthetic-indices"><path fill-rule="evenodd" clip-rule="evenodd" d="M13 0a3 3 0 013 3v10a3 3 0 01-3 3H3a3 3 0 01-3-3V3a3 3 0 013-3h10z" fill="#33658A" /><path fill-rule="evenodd" clip-rule="evenodd" d="M6.5 5l.5-.25-.5-1.5H11L8 7.5l-.5-1.25-.5.25.5 1.25H3L6 3.5 6.5 5zM2.75 8.25H7.5l-1 1.25.5.25L8 8.5l2 4.25H5.25l1-1.5-.5-.25-1 1.5-2-4.25zm8.75-5l2 4.5h-2v.5h2l-3 4.25L8.25 8l3.25-4.75z" fill="#fff" /></symbol><symbol viewBox="0 0 64 64" id="ic-mt5-synthetic-platform"><g fill="none"><path fill="#333" d="M28 48h8v4h15.5a.5.5 0 01.5.5v7a.5.5 0 01-.5.5h-39a.5.5 0 01-.5-.5v-7a.5.5 0 01.5-.5H28v-4z" /><g transform="translate(0 8)"><rect width="64" height="40" fill="#85ACB0" rx="1" /><path fill="#C9DBDC" d="M46.57 19.61L40.88 7.68l-.09-.16v-.05l-.1-.08-.48-.39h-15c-.163.085-.31.2-.43.34l-8.71 12.02-.07.11v1.2l5.7 12 .07.11h15.55l.12-.09.17-.2 8.57-12c.296-.412.342-.954.12-1.41l.27.53zM25.5 11.14l.63 1.39v.07a1.45 1.45 0 001.28.75 1.46 1.46 0 001.45-1.42 1.28 1.28 0 00-.13-.57l-.76-1.68h8.76L31.3 17.3l-.63-1.39v-.07a1.43 1.43 0 00-1.27-.74 1.42 1.42 0 00-1.32 1.99l.76 1.68h-8.82l5.48-7.63zm.12 19.59l1.14-1.71.05-.08c.117-.204.18-.435.18-.67a1.42 1.42 0 00-.67-1.2 1.493 1.493 0 00-.78-.22 1.47 1.47 0 00-1.22.64l-1.18 1.77-3.63-7.63h8.82l-1.12 1.67v.08a1.42 1.42 0 00.5 1.88c.225.14.485.217.75.22h.11a1.469 1.469 0 001.13-.64l.53-.8.66-1 3.63 7.61-8.9.08zm14.89-9.1h2l-5.55 7.67-3.67-7.69h2.1a1.419 1.419 0 00-.11-2.83h-1.49l5.52-7.7 3.67 7.7H40.4a1.42 1.42 0 00-1.147 2.178c.27.43.75.682 1.257.662v.01z" /></g></g></symbol><symbol fill="none" viewBox="0 0 33 33" id="ic-mt5-trade-types"><path opacity=".01" fill="#fff" stroke="#979797" d="M0 0h32v32H0z" /><path fill-rule="evenodd" clip-rule="evenodd" d="M22.328 22.533a.792.792 0 110-1.585.792.792 0 010 1.585zm.793 3.016a.793.793 0 11-1.586 0v-1.537a.794.794 0 111.586 0v1.537zm-3.914-5.493a.793.793 0 110-1.586.793.793 0 010 1.586zm.794 5.493a.793.793 0 11-1.586 0v-3.838a.793.793 0 111.586 0v3.838zm-3.913-6.806a.794.794 0 110-1.587.794.794 0 010 1.587zm.793 6.806a.793.793 0 11-1.587 0v-5.23a.793.793 0 111.587 0v5.23zm-3.914-4.362a.793.793 0 110-1.586.793.793 0 010 1.586zm.793 4.362a.793.793 0 11-1.586 0v-2.686a.793.793 0 011.586 0v2.686zm9.351-14.883H3.555A3.556 3.556 0 000 14.222v4.889h3.837v-2.442l4.138 3.108 2.069 1.555-2.069 1.554-4.138 3.11v-2.443H0v4.891a3.555 3.555 0 003.555 3.555h19.556a3.555 3.555 0 003.556-3.555V14.222a3.556 3.556 0 00-3.556-3.556z" fill="#85ACAF" /><path fill-rule="evenodd" clip-rule="evenodd" d="M24.163.517L26.124 4.5a.927.927 0 00.697.507l4.386.639a.927.927 0 01.512 1.581l-3.173 3.1a.93.93 0 00-.266.82l.75 4.378a.926.926 0 01-1.343.978l-3.924-2.067a.926.926 0 00-.86 0l-3.923 2.067a.926.926 0 01-1.343-.978l.75-4.377a.93.93 0 00-.266-.821l-3.173-3.1a.928.928 0 01.511-1.581l4.387-.639a.925.925 0 00.696-.507L22.504.517a.924.924 0 011.659 0z" fill="#FF444F" /></symbol></defs></svg>