<svg xmlns="http://www.w3.org/2000/svg" xmlns:xlink="http://www.w3.org/1999/xlink"><defs><symbol viewBox="0 0 16 16" id="ic-tradetype-asiand"><g fill="none"><path fill="var(--fill-color2)" d="M8 12v2H0v-2h8zm8-6v2H0V6h16zm0-6v2H0V0h16z" /><path fill="var(--fill-color1)" d="M9.414 8L14 12.59v-1.6A1.99 1.99 0 0115.99 9H16v5a2 2 0 01-2 2H9v-.01A1.99 1.99 0 0110.986 14h1.6l-6-6h2.828zm-6-6l3 3H3.586l-3-3h2.828z" /></g></symbol><symbol viewBox="0 0 16 16" id="ic-tradetype-asianu"><g fill="none"><path fill="var(--fill-color2)" d="M16 14v2H0v-2h16zm0-6v2H0V8h16zM8 2v2H0V2h8z" /><path fill="var(--fill-color1)" d="M6.414 11l-3 3H.586l3-3h2.828zM14 0a2 2 0 012 2v5h-.01A1.99 1.99 0 0114 5.014v-1.6L9.414 8H6.59l6-6h-1.6A1.99 1.99 0 019 .01V0h5z" /></g></symbol><symbol viewBox="0 0 16 16" id="ic-tradetype-call"><g fill="none"><path fill="var(--fill-color1)" d="M14 0H9v.01A1.99 1.99 0 0010.99 2h1.6L4 10.586v2.828l10-10v1.6A1.99 1.99 0 0015.99 7H16V2a2 2 0 00-2-2z" /><path fill="var(--fill-color2)" d="M1.414 16H0v-2h3.414L2 15.414z" /></g></symbol><symbol viewBox="0 0 16 16" id="ic-tradetype-call-barrier"><g fill="none"><path fill="var(--fill-color2)" d="M16 10H0V8h16z" /><path fill="var(--fill-color1)" d="M3 11v1.586L4.586 11h2.828l-4 4H1v-4h2zM14 1a2 2 0 012 2v4.004h-1.727a1.973 1.973 0 01-.273-.99v-1.6L10.418 8H7.59l5-5h-1.6A1.99 1.99 0 019 1.01V1h5z" /></g></symbol><symbol viewBox="0 0 16 16" id="ic-tradetype-calle-light"><path fill="var(--fill-color1)" d="M6.671 8l3.422-4.79A.5.5 0 0110.5 3h1.79l-1.144-1.147a.5.5 0 11.708-.706l1.963 1.966a.499.499 0 010 .774l-1.963 1.966a.5.5 0 01-.708-.706L12.291 4h-1.534L7.9 8h4.6a.5.5 0 110 1H7.186l-1.28 1.79a.5.5 0 01-.76.064l-2-2A.498.498 0 013.5 8h3.171zm-.714 1h-1.25l.73.73.52-.73zm6.897-2.147a.5.5 0 01-.708-.706l1.997-2a.5.5 0 11.707.706l-1.996 2z" /></symbol><symbol viewBox="0 0 16 16" id="ic-tradetype-callspread"><g fill-rule="nonzero" fill="none"><path d="M16 14v2H0v-2h16zm-.277-7a1.94 1.94 0 010 2 1.95 1.95 0 01-.309.414l-3.535 3.536a1.989 1.989 0 01-.007-2.822L13 9H8.414l2-2zM5 0v2H0V0h5z" fill="var(--fill-color2)" /><path d="M12 0H7v.01A1.99 1.99 0 008.99 2h1.6l-5 5H0v2h6.414l2-2L12 3.414V5h2V2a2 2 0 00-2-2z" fill="var(--fill-color1)" /></g></symbol><symbol viewBox="0 0 16 16" id="ic-tradetype-digitdiff"><g fill="none"><path d="M0 0h16v16H0z" class="transparent" /><path fill="var(--fill-color1)" d="M3.493.654l5.746 5.723-5.746 5.747c-.766-.789-.789-2.028 0-2.817l1.848-1.848H.045V5.476H5.5L3.493 3.47a1.973 1.973 0 010-2.816zm3.448 11.808h1.983v3.493H6.94v-3.493zM6.94.18h1.983v1.893H6.94V.18z" /><path fill="var(--fill-color2)" d="M15.82 8.563h-4.305l1.848-1.848c.767-.766.767-2.028 0-2.816L10.051 7.21a.844.844 0 010 1.172l-1.826 1.825 5.138 5.138c.609-.923.474-2.343-.315-3.132l-1.69-1.69h4.44v-1.96h.022z" /></g></symbol><symbol viewBox="0 0 16 16" id="ic-tradetype-digiteven"><g fill="none"><path d="M0 0h16v16H0z" class="transparent" /><path fill="var(--fill-color2)" d="M.135 6.49V.158h6.333V6.49H.135zm4.125-4.1H2.366v1.893H4.26V2.389zM9.6 16V9.668h6.332V16H9.6zm4.101-4.124h-1.893v1.893h1.893v-1.893z" /><path fill="var(--fill-color1)" d="M9.6.158h6.332V6.49H9.6V.158zm2.208 4.124h1.893V2.389h-1.893v1.893zM.135 16V9.668h6.333V16H.135zm4.124-4.124H2.366v1.893H4.26v-1.893z" /></g></symbol><symbol viewBox="0 0 16 16" id="ic-tradetype-digitmatch"><g fill="none"><path d="M0 0h16v16H0z" /><path fill="var(--fill-color1)" d="M3.556 2.231l5.666 5.724L3.556 13.7c-.756-.788-.778-2.028 0-2.816l1.822-1.848H.156V7.054h5.377L3.556 5.048a1.992 1.992 0 010-2.817zm3.377 10.231H8.89v3.47H6.933v-3.47zm0-12.304H8.89v3.56H6.933V.158z" /><path fill="var(--fill-color2)" d="M12.156 2.344c.755.788.755 2.05-.023 2.817l-1.466 1.487L9.289 5.25l2.867-2.907zm0 11.493L9.2 10.817l1.378-1.397 1.578 1.6c.755.788.755 2.05 0 2.817zm-1.223-4.778l1.045-1.082-.911-.923h4.622v2.005h-4.756z" /></g></symbol><symbol viewBox="0 0 16 16" id="ic-tradetype-digitodd"><g fill="none"><path d="M0 0h16v16H0z" class="transparent" /><path fill="var(--fill-color2)" d="M11.628 7.827H4.237L7.91 2l3.718 5.827zM7.256 6.155h1.352l-.676-1.068-.676 1.068z" /><path fill="var(--fill-color1)" d="M7.46 14.86H.067L3.74 9.035l3.718 5.827zm-4.395-1.67h1.352l-.677-1.07-.676 1.068zm12.755 1.67H8.428l3.673-5.826 3.719 5.827zm-4.372-1.67H12.8l-.676-1.069-.676 1.068z" /></g></symbol><symbol viewBox="0 0 16 16" id="ic-tradetype-digitover"><g fill="none"><path d="M0 0h16v16H0z" class="transparent" /><path fill="var(--fill-color2)" d="M6.513 12.544L3.02 15.912H.203l4.89-4.746z" /><path fill="var(--fill-color1)" d="M.045 11.034H15.82v1.925H.045v-1.925zM13.837 8.06V5.412l-5.792 5.622V8.3l4.372-4.244H9.69c-1.104 0-1.983-.875-1.983-1.925h8.113v7.875c-1.105 0-1.983-.875-1.983-1.947z" /></g></symbol><symbol viewBox="0 0 16 16" id="ic-tradetype-digitunder"><g fill="none"><path d="M0 0h16v16H0z" class="transparent" /><path fill="var(--fill-color2)" d="M6.603 5.478L3.11 2.088H.293l4.913 4.768z" /><path fill="var(--fill-color1)" d="M.135 5.04H15.91v1.926H.135V5.04zm13.792 4.9c0-1.071.901-1.924 1.983-1.946v7.875H7.797c0-1.05.88-1.925 1.983-1.925h2.727L8.135 9.7V6.966l5.792 5.621V9.941z" /></g></symbol><symbol viewBox="0 0 16 16" id="ic-tradetype-expirymiss"><g fill="none"><path fill="var(--fill-color2)" d="M16 14v2H0v-2h16zm0-14v2H0V0h16z" /><path fill="var(--fill-color1)" d="M15.414 6.586l-3.293-3.293-.006.007a1.988 1.988 0 000 2.814L13 7H6v2h7l-.885.886a1.988 1.988 0 000 2.814l.006.007 3.293-3.293a2 2 0 000-2.828z" /></g></symbol><symbol viewBox="0 0 16 16" id="ic-tradetype-expiryrange"><g fill="none"><path fill="var(--fill-color2)" d="M16 14v2H0v-2h16zM8 8v2H0V8h8zm8 0v2h-3.086l2-2H16z" /><path fill="var(--fill-color1)" d="M14 3.586L10.707.293 10.7.3a1.99 1.99 0 000 2.814l.886.886H6v2h5.586l-.886.886a1.99 1.99 0 000 2.814l.007.007L14 6.414a2 2 0 000-2.828z" /></g></symbol><symbol viewBox="0 0 16 16" id="ic-tradetype-expiryrangee"><g fill="var(--fill-color1)"><rect width="16" height="1" y="4.5" rx=".5" transform="rotate(180 8 5)" /><rect width="16" height="1" y="10.5" rx=".5" transform="rotate(180 8 11)" /><path d="M13.646 9.146a.5.5 0 10.708.708l1.5-1.5a.5.5 0 000-.708l-1.5-1.5a.5.5 0 10-.708.708L14.793 8l-1.147 1.146z" /><path d="M15.5 7.5h-5a.5.5 0 000 1h5a.5.5 0 100-1z" /></g></symbol><symbol viewBox="0 0 16 16" id="ic-tradetype-lbcall"><g fill="none"><path d="M16 14v2H0v-2h16zM15 0v13h-2V0h2z" fill="var(--fill-color2)" /><path d="M4.422 11l-.998 1L0 13v-2h4.422zM9 3a2 2 0 012 2l-.01 5A2 2 0 019 8V6.414l-4 4.007V7.586L7.586 5H6a2.006 2.006 0 01-2-2h5z" fill="var(--fill-color1)" /></g></symbol><symbol viewBox="0 0 16 16" id="ic-tradetype-lbhighlow"><g fill="none"><path d="M16 14v2H0v-2h16zM15 3v10h-2V3h2zm1-3v2H0V0h16z" fill="var(--fill-color2)" /><path d="M4.422 11l-.998 1L0 13v-2h4.422zM9 3a2 2 0 012 2l-.01 5A2 2 0 019 8V6.414l-4 4.007V7.586L7.586 5H6a2.006 2.006 0 01-2-2h5z" fill="var(--fill-color1)" /></g></symbol><symbol viewBox="0 0 16 16" id="ic-tradetype-lbput"><g fill="none"><path d="M15 3v13h-2V3h2zm1-3v2H0V0h16z" fill="var(--fill-color2)" /><path d="M5 5.579l4 4.007V8a2 2 0 011.99-2l.01 5a2 2 0 01-2 2H4a2.006 2.006 0 012-2h1.586L5 8.414V5.579zM0 3l3.424 1 .998 1H0V3z" fill="var(--fill-color1)" /></g></symbol><symbol viewBox="0 0 16 16" id="ic-tradetype-multdown"><g fill="none"><path fill="var(--fill-color1)" d="M14 16H9a2 2 0 012-2h1.6L0 1.5V0h1.5L14 12.585V11a2 2 0 012-2v5a2 2 0 01-2 2z" /><path fill="var(--fill-color2)" d="M5.5 9L7 10.5 1.5 16H0v-1.5L5.5 9zM16 0v1.5L10.5 7 9 5.5 14.5 0H16z" /></g></symbol><symbol viewBox="0 0 16 16" id="ic-tradetype-multup"><g fill="none"><path fill="var(--fill-color1)" d="M14 0H9a2 2 0 002 2h1.6L0 14.5V16h1.5L14 3.415V5a2 2 0 002 2V2a2 2 0 00-2-2z" /><path fill="var(--fill-color2)" d="M10.5 9l5.5 5.5V16h-1.5L9 10.5 10.5 9zm-9-9L7 5.5 5.5 7 0 1.5V0h1.5z" /></g></symbol><symbol viewBox="0 0 16 16" id="ic-tradetype-notouch"><g fill="none"><path fill="var(--fill-color2)" d="M3.414 14l-2 2H0v-2h3.414zM16 0v2H0V0h16z" /><path fill="var(--fill-color1)" d="M15.99 7A1.99 1.99 0 0014 8.99v1.6L10.414 7a2 2 0 00-2.828 0L4 10.586v2.828l5-5L12.586 12h-1.6A1.99 1.99 0 009 13.99V14h5a2 2 0 002-2V7h-.01z" /></g></symbol><symbol viewBox="0 0 16 16" id="ic-tradetype-onetouch"><g fill="none"><path fill="var(--fill-color2)" d="M5.424 14L4 15.426 3.426 16H0v-2h5.424zM16 0v2H0V0h16z" /><path fill="var(--fill-color1)" d="M15.99 10H16V4a2 2 0 00-2-2H8v.01A1.99 1.99 0 009.99 4h2.6L6 10.586v2.837l8-8.009v2.6A1.99 1.99 0 0015.99 10z" /></g></symbol><symbol viewBox="0 0 16 16" id="ic-tradetype-put"><g fill="none"><path fill="var(--fill-color1)" d="M15.99 9A1.99 1.99 0 0014 10.99v1.6l-10-10v2.824L12.586 14h-1.6A1.99 1.99 0 009 15.99V16h5a2 2 0 002-2V9h-.01z" /><path fill="var(--fill-color2)" d="M0 2V0h1.414L2 .586 3.414 2H2z" /></g></symbol><symbol viewBox="0 0 16 16" id="ic-tradetype-put-barrier"><g fill="none"><path fill="var(--fill-color2)" d="M16 8H0V6h16z" /><path fill="var(--fill-color1)" d="M10.414 8L14 11.59v-1.6c.002-.348.096-.69.273-.99H16v4a2 2 0 01-2 2H9v-.01A1.99 1.99 0 0110.986 13h1.6l-5-5h2.828zm-7-7l4 4H4.586L3 3.414V5H1V1h2.414z" /></g></symbol><symbol viewBox="0 0 16 16" id="ic-tradetype-putspread"><g fill-rule="nonzero" fill="none"><path d="M5 14v2H0v-2h5zm6.879-10.95l3.535 3.536c.12.124.225.263.309.414a1.94 1.94 0 010 2h-5.309l-2-2H13l-1.128-1.128a1.989 1.989 0 010-2.815l.007-.007zM16 0v2H0V0h16z" fill="var(--fill-color2)" /><path d="M12 11v1.586L8.414 9l-2-2H0v2h5.586l5 5H8.99A1.99 1.99 0 007 15.99V16h5a2 2 0 002-2v-3h-2z" fill="var(--fill-color1)" /></g></symbol><symbol viewBox="0 0 16 16" id="ic-tradetype-range"><g fill="none"><path fill="var(--fill-color2)" d="M16 14v2H0v-2h16zM6 6v4H4V6h2zm10-6v2H0V0h16z" /><path fill="var(--fill-color1)" d="M11.862 3.092L15.4 6.627a2 2 0 010 2.829l-3.538 3.535-.008-.007a1.99 1.99 0 010-2.814L13.024 9H7V7h5.941l-1.087-1.087a1.99 1.99 0 010-2.814l.008-.007zM3 7v2H0V7h3z" /></g></symbol><symbol viewBox="0 0 16 16" id="ic-tradetype-resetcall"><g fill="none"><path fill="var(--fill-color2)" d="M4 14v2H0v-2h4zm12 0v2h-6v-2h6zM8 0v16H6V0h2zM4 0v2H0V0h4z" /><path fill="var(--fill-color1)" d="M6 8.586v2.828L5.414 12H0v-2h4.586L6 8.586zM14 0a2 2 0 012 2v5h-.01A1.99 1.99 0 0114 5.014v-1.6l-5 5V5.586L12.59 2h-1.6A1.99 1.99 0 019 .01V0z" /><path fill="var(--fill-color2)" d="M7 10v.414L7.414 10z" /></g></symbol><symbol viewBox="0 0 16 16" id="ic-tradetype-resetput"><g fill="none"><path fill="var(--fill-color2)" d="M8 0v16H6V0h2zM4 14v2H0v-2h4zM4 0v2H0V0h4zm12 0v2h-6V0h6z" /><path fill="var(--fill-color1)" d="M9 7.59l5 5v-1.6A1.99 1.99 0 0115.99 9H16v5a2 2 0 01-2 2H9v-.01A1.99 1.99 0 0110.986 14h1.6L9 10.418V7.59zM5.414 4L6 4.586v2.828L4.586 6H0V4h5.414z" /></g></symbol><symbol viewBox="0 0 24 24" id="ic-tradetype-runhigh"><g fill="none"><path fill="var(--fill-color2)" d="M6 21v3H3v-3h3zM24 0v24h-3V0h3zm-6 12v12h-3V12h3zm-6 6v6H9v-6h3zm-6.879-3l-3 3H0v-3h5.121z" /><path fill="var(--fill-color1)" d="M15 0H7.5v.015A2.985 2.985 0 0010.485 3h2.4L6 9.879v4.242l9-9v2.4a2.985 2.985 0 002.985 2.979H18V3a3 3 0 00-3-3z" /></g></symbol><symbol viewBox="0 0 24 24" id="ic-tradetype-runlow"><g fill="none"><path fill="var(--fill-color2)" d="M24 0v24h-3V0h3zm-6 0v12h-3V0h3zM2.121 6l3 3H0V6h2.121zM12 0v6H9V0h3zM6 0v3H3V0h3z" /><path fill="var(--fill-color1)" d="M17.985 13.5A2.985 2.985 0 0015 16.485v2.4l-9-9v4.236L12.879 21h-2.394A2.985 2.985 0 007.5 23.985V24H15a3 3 0 003-3v-7.5h-.015z" /></g></symbol><symbol viewBox="0 0 16 16" id="ic-tradetype-tickhigh"><g fill="none"><path fill="var(--fill-color2)" d="M16 14v2H0v-2h16zm0-14v2H8l2-2h6zM6 0l2 2H0V0h6z" /><path fill="var(--fill-color1)" d="M15.99 5A1.99 1.99 0 0014 6.99v1.6L9.414 4a2 2 0 00-2.828 0L2 8.586l-2-2v2.828L.586 10a2 2 0 002.828 0L8 5.414 12.586 10h-1.6A1.99 1.99 0 009 11.99V12h5a2 2 0 002-2V5h-.01z" /></g></symbol><symbol viewBox="0 0 16 16" id="ic-tradetype-ticklow"><g fill="none"><path fill="var(--fill-color2)" d="M16 14v2h-6l-2-2h8zm-8 0l-2 2H0v-2h8zm8-14v2H0V0h16z" /><path fill="var(--fill-color1)" d="M14 4H9v.01A1.99 1.99 0 0010.99 6h1.6L8 10.586 3.414 6A2 2 0 00.586 6L0 6.586v2.828l2-2L6.586 12a2 2 0 002.828 0L14 7.414v1.6A1.99 1.99 0 0015.99 11H16V6a2 2 0 00-2-2z" /></g></symbol><symbol viewBox="0 0 16 16" id="ic-tradetype-upordown"><g fill="none"><path fill="var(--fill-color2)" d="M16 14v2H0v-2h16zm0-8v2H0V6h16z" /><path fill="var(--fill-color1)" d="M8.414 9l-3 3H0v-2h4.586l1-1h2.828zM14 0a2 2 0 012 2v3h-2V3.414L11.418 6H8.59l4-4h-1.6A1.99 1.99 0 019 .01V0h5z" /></g></symbol></defs></svg>